if (_typeface_js && _typeface_js.loadFace) _typeface_js.loadFace({"glyphs":{"S":{"x_min":81.78125,"x_max":796,"ha":889,"o":"m 473 -14 q 263 24 356 -14 q 81 141 169 63 l 129 195 q 208 130 169 157 q 290 86 248 103 q 377 60 331 69 q 477 51 423 51 q 578 65 532 51 q 655 105 623 80 q 705 167 687 131 q 724 244 724 202 l 724 246 q 712 316 724 285 q 669 371 700 346 q 585 417 637 396 q 448 453 532 437 q 298 496 361 471 q 196 553 236 520 q 139 628 157 585 q 121 727 121 672 l 121 730 q 144 831 121 784 q 209 912 168 877 q 308 966 251 947 q 433 986 365 986 q 616 956 539 986 q 766 868 693 927 l 721 811 q 581 896 651 871 q 430 921 511 921 q 332 906 376 921 q 257 866 288 891 q 209 808 226 841 q 193 737 193 775 l 193 734 q 204 664 193 695 q 247 607 216 633 q 334 561 279 582 q 476 522 390 540 q 720 424 645 487 q 796 254 796 361 l 796 251 q 771 143 796 193 q 704 59 747 94 q 603 5 662 24 q 473 -14 544 -14 "},"/":{"x_min":-25,"x_max":698.671875,"ha":695,"o":"m 630 1108 l 698 1108 l 43 -178 l -25 -178 l 630 1108 "},"y":{"x_min":54.171875,"x_max":758.390625,"ha":817,"o":"m 215 -226 q 143 -218 175 -226 q 75 -195 111 -210 l 98 -135 q 152 -155 126 -149 q 219 -162 179 -162 q 270 -153 247 -162 q 315 -125 294 -145 q 355 -73 336 -105 q 394 4 375 -41 l 54 708 l 133 708 l 427 74 l 683 708 l 758 708 l 451 -24 q 347 -180 404 -135 q 215 -226 291 -226 "},"≈":{"x_min":68.21875,"x_max":1221,"ha":1352,"o":"m 1145 708 l 1213 708 l 1213 0 l 1145 0 l 1145 708 m 171 645 l 68 645 l 68 708 l 171 708 l 171 777 q 233 962 171 899 q 382 1018 289 1018 q 439 1013 414 1018 q 487 1001 464 1009 l 487 937 q 433 950 457 946 q 382 955 409 955 q 239 776 239 955 l 239 708 l 486 708 l 486 645 l 239 645 l 239 0 l 171 0 l 171 645 m 674 645 l 571 645 l 571 708 l 674 708 l 674 777 q 736 962 674 899 q 884 1018 791 1018 q 941 1013 916 1018 q 990 1001 966 1009 l 990 937 q 936 950 959 946 q 884 955 912 955 q 742 776 742 955 l 742 708 l 989 708 l 989 645 l 742 645 l 742 0 l 674 0 l 674 645 m 1137 986 l 1221 986 l 1221 893 l 1137 893 l 1137 986 "},"Ž":{"x_min":94.453125,"x_max":862.5625,"ha":956,"o":"m 318 1232 l 383 1232 l 486 1137 l 588 1232 l 651 1232 l 512 1062 l 456 1062 l 318 1232 m 94 40 l 759 907 l 118 907 l 118 972 l 862 972 l 862 931 l 197 65 l 862 65 l 862 0 l 94 0 l 94 40 "},"Á":{"x_min":61.109375,"x_max":1036.1875,"ha":1097,"o":"m 647 1247 l 732 1205 l 583 1062 l 525 1062 l 647 1247 m 802 337 l 547 899 l 290 337 l 802 337 m 513 979 l 583 979 l 1036 0 l 957 0 l 833 272 l 259 272 l 136 0 l 61 0 l 513 979 "},"g":{"x_min":83,"x_max":788,"ha":917,"o":"m 430 118 q 539 137 486 118 q 632 192 591 156 q 698 277 673 227 q 724 387 724 326 l 724 390 q 698 501 724 451 q 632 587 673 551 q 539 641 591 622 q 430 660 486 660 q 325 641 375 660 q 237 587 275 622 q 178 503 200 552 q 157 391 157 454 l 157 389 q 179 279 157 329 q 238 193 201 229 q 326 138 276 158 q 430 118 376 118 m 440 -225 q 115 -116 261 -225 l 156 -60 q 442 -161 285 -161 q 554 -143 503 -161 q 641 -91 604 -126 q 699 -5 678 -56 q 720 114 720 46 l 720 216 q 667 154 696 183 q 601 102 637 125 q 521 66 565 79 q 423 53 476 53 q 298 76 359 53 q 189 143 237 100 q 112 248 141 187 q 83 386 83 309 l 83 389 q 112 527 83 465 q 189 634 141 590 q 298 701 237 677 q 423 725 359 725 q 521 711 476 725 q 603 676 567 698 q 668 626 639 655 q 720 566 697 596 l 720 708 l 788 708 l 788 109 q 764 -27 788 31 q 697 -130 740 -87 q 585 -200 651 -176 q 440 -225 519 -225 "},"–":{"x_min":97.234375,"x_max":636.15625,"ha":733,"o":"m 97 449 l 636 449 l 636 377 l 97 377 l 97 449 "},"ë":{"x_min":81,"x_max":742,"ha":811,"o":"m 251 938 l 347 938 l 347 827 l 251 827 l 251 938 m 478 938 l 574 938 l 574 827 l 478 827 l 478 938 m 668 387 q 646 490 663 441 q 597 577 629 539 q 520 639 566 616 q 413 662 475 662 q 315 641 361 662 q 235 583 269 620 q 179 496 201 546 q 153 387 157 445 l 668 387 m 428 -17 q 295 9 358 -17 q 184 84 232 35 q 108 201 136 133 q 81 352 81 269 l 81 355 q 106 499 81 431 q 177 616 132 566 q 283 695 222 666 q 417 725 344 725 q 551 696 492 725 q 653 617 611 668 q 719 500 696 567 q 742 353 742 433 q 742 339 742 344 q 740 326 742 334 l 153 326 q 182 208 157 259 q 244 120 207 156 q 330 65 282 84 q 430 47 378 47 q 571 78 514 47 q 673 158 629 110 l 721 116 q 598 20 666 58 q 428 -17 529 -17 "},"ƒ":{"x_min":56.953125,"x_max":652.828125,"ha":703,"o":"m 125 -7 q 86 -5 102 -7 q 56 -1 70 -4 l 56 60 q 120 54 84 54 q 234 168 213 54 l 302 533 l 151 533 l 151 596 l 313 596 l 350 784 q 417 933 369 888 q 548 979 465 979 q 604 975 581 979 q 652 965 627 972 l 652 904 q 602 914 627 911 q 555 918 577 918 q 467 886 497 918 q 423 780 437 855 l 388 596 l 604 596 l 604 533 l 377 533 l 308 163 q 247 34 291 76 q 125 -7 204 -7 "},"Î":{"x_min":25,"x_max":358.359375,"ha":381,"o":"m 163 1232 l 219 1232 l 358 1062 l 293 1062 l 190 1157 l 87 1062 l 25 1062 l 163 1232 m 154 972 l 226 972 l 226 0 l 154 0 l 154 972 "},"e":{"x_min":81,"x_max":742,"ha":811,"o":"m 668 387 q 646 490 663 441 q 597 577 629 539 q 520 639 566 616 q 413 662 475 662 q 315 641 361 662 q 235 583 269 620 q 179 496 201 546 q 153 387 157 445 l 668 387 m 428 -17 q 295 9 358 -17 q 184 84 232 35 q 108 201 136 133 q 81 352 81 269 l 81 355 q 106 499 81 431 q 177 616 132 566 q 283 695 222 666 q 417 725 344 725 q 551 696 492 725 q 653 617 611 668 q 719 500 696 567 q 742 353 742 433 q 742 339 742 344 q 741 326 742 334 l 153 326 q 182 208 157 259 q 244 120 207 156 q 330 65 282 84 q 430 47 378 47 q 571 78 514 47 q 674 158 629 110 l 721 116 q 598 20 667 58 q 428 -17 529 -17 "},"Ã":{"x_min":61.109375,"x_max":1036.1875,"ha":1097,"o":"m 343 1063 q 390 1165 362 1138 q 459 1192 418 1192 q 502 1182 479 1192 q 550 1163 526 1173 q 597 1144 575 1153 q 637 1135 619 1135 q 677 1149 662 1135 q 707 1204 691 1163 l 754 1191 q 707 1089 734 1116 q 637 1063 679 1063 q 594 1072 618 1063 q 546 1091 570 1081 q 500 1110 522 1101 q 459 1120 477 1120 q 420 1105 434 1120 q 390 1050 405 1090 l 343 1063 m 802 337 l 547 899 l 290 337 l 802 337 m 513 979 l 583 979 l 1036 0 l 957 0 l 833 272 l 259 272 l 136 0 l 61 0 l 513 979 "},"J":{"x_min":51.234375,"x_max":633,"ha":763,"o":"m 345 -14 q 166 36 237 -14 q 51 167 95 87 l 110 205 q 157 138 133 167 q 210 89 181 109 q 272 60 238 70 q 349 51 306 51 q 433 67 394 51 q 500 116 472 84 q 545 198 529 149 q 561 310 561 246 l 561 972 l 633 972 l 633 316 q 608 167 633 231 q 544 63 584 104 q 454 5 505 24 q 345 -14 404 -14 "},"»":{"x_min":87.5,"x_max":644.5,"ha":715,"o":"m 87 91 l 277 352 l 87 616 l 138 650 l 361 359 l 361 348 l 138 58 l 87 91 m 370 91 l 561 352 l 370 616 l 422 650 l 644 359 l 644 348 l 422 58 l 370 91 "},"©":{"x_min":73,"x_max":1079,"ha":1153,"o":"m 581 230 q 481 250 527 230 q 401 307 435 271 q 348 389 367 342 q 329 491 329 437 l 329 494 q 348 595 329 547 q 402 679 367 642 q 483 736 437 715 q 583 757 528 757 q 695 732 651 757 q 778 671 740 708 l 737 628 q 668 679 706 657 q 581 701 630 701 q 505 685 540 701 q 444 640 470 669 q 404 574 419 612 q 390 495 390 537 l 390 492 q 405 413 390 451 q 446 347 420 374 q 507 302 471 319 q 583 286 542 286 q 670 304 634 286 q 742 358 706 323 l 781 319 q 695 254 741 279 q 581 230 649 230 m 574 22 q 757 58 673 22 q 904 158 842 95 q 1001 306 966 222 q 1037 486 1037 390 l 1037 488 q 1002 668 1037 584 q 905 815 967 752 q 759 913 843 877 q 577 950 675 950 q 394 913 478 950 q 247 813 309 876 q 150 665 185 749 q 115 486 115 581 l 115 483 q 149 303 115 387 q 246 156 184 219 q 392 58 308 94 q 574 22 476 22 m 574 -17 q 377 22 469 -17 q 218 130 285 62 q 111 289 150 198 q 73 483 73 380 l 73 486 q 111 679 73 588 q 218 839 150 770 q 379 948 286 908 q 577 989 471 989 q 774 949 682 989 q 933 841 866 909 q 1040 682 1001 773 q 1079 488 1079 591 l 1079 486 q 1040 292 1079 383 q 933 132 1001 201 q 772 23 865 63 q 574 -17 680 -17 "},"˘":{"x_min":162.515625,"x_max":531.984375,"ha":695,"o":"m 347 824 q 218 869 269 824 q 162 996 168 914 l 216 996 q 261 921 229 948 q 347 895 293 895 q 433 921 401 895 q 477 996 465 948 l 531 996 q 475 869 526 914 q 347 824 425 824 "},"ò":{"x_min":81,"x_max":808,"ha":889,"o":"m 265 969 l 350 1011 l 472 826 l 413 826 l 265 969 m 445 47 q 561 71 508 47 q 652 136 614 95 q 712 233 691 177 q 734 351 734 288 l 734 354 q 711 474 734 417 q 650 572 689 530 q 557 637 610 613 q 443 661 504 661 q 327 636 380 661 q 236 571 274 612 q 176 474 197 530 q 155 356 155 419 l 155 354 q 177 233 155 290 q 238 135 199 177 q 331 70 278 94 q 445 47 384 47 m 443 -17 q 298 12 364 -17 q 183 92 232 42 q 108 209 135 142 q 81 351 81 276 l 81 354 q 108 495 81 429 q 184 613 135 562 q 300 695 233 665 q 445 725 366 725 q 590 695 524 725 q 705 615 656 665 q 780 498 753 565 q 808 356 808 431 l 808 354 q 780 212 808 278 q 704 94 753 145 q 588 12 655 42 q 443 -17 522 -17 "},"^":{"x_min":97.234375,"x_max":597.265625,"ha":695,"o":"m 316 976 l 377 976 l 597 685 l 523 685 l 345 916 l 168 685 l 97 685 l 316 976 "},"«":{"x_min":70.84375,"x_max":627.828125,"ha":715,"o":"m 70 348 l 70 359 l 293 650 l 344 616 l 154 355 l 344 91 l 293 58 l 70 348 m 354 348 l 354 359 l 576 650 l 627 616 l 437 355 l 627 91 l 576 58 l 354 348 "},"D":{"x_min":144,"x_max":985,"ha":1086,"o":"m 467 67 q 651 99 569 67 q 790 188 733 132 q 878 320 847 244 q 910 483 910 395 l 910 486 q 878 648 910 572 q 790 781 847 724 q 651 871 733 838 q 467 905 569 905 l 216 905 l 216 67 l 467 67 m 144 972 l 467 972 q 677 935 581 972 q 841 833 772 898 q 947 679 909 767 q 985 488 985 591 l 985 486 q 947 294 985 383 q 841 140 909 205 q 677 37 772 74 q 467 0 581 0 l 144 0 l 144 972 "},"∙":{"x_min":114,"x_max":206,"ha":319,"o":"m 114 472 l 206 472 l 206 354 l 114 354 l 114 472 "},"ł":{"x_min":75.4375,"x_max":354.5625,"ha":429,"o":"m 181 466 l 75 433 l 75 502 l 181 534 l 181 1014 l 249 1014 l 249 555 l 354 588 l 354 519 l 249 486 l 249 0 l 181 0 l 181 466 "},"ÿ":{"x_min":54.34375,"x_max":758.5625,"ha":817,"o":"m 247 938 l 343 938 l 343 827 l 247 827 l 247 938 m 474 938 l 570 938 l 570 827 l 474 827 l 474 938 m 215 -226 q 143 -218 175 -226 q 75 -195 111 -210 l 98 -135 q 152 -155 126 -149 q 219 -162 179 -162 q 271 -153 247 -162 q 315 -125 294 -145 q 355 -73 336 -105 q 394 4 375 -41 l 54 708 l 133 708 l 427 74 l 683 708 l 758 708 l 451 -24 q 348 -180 404 -135 q 215 -226 291 -226 "},"Ł":{"x_min":81.828125,"x_max":829.265625,"ha":901,"o":"m 186 438 l 81 406 l 81 473 l 186 505 l 186 972 l 257 972 l 257 527 l 569 623 l 569 556 l 257 461 l 257 67 l 829 67 l 829 0 l 186 0 l 186 438 "},"í":{"x_min":139,"x_max":352.90625,"ha":346,"o":"m 268 1011 l 352 969 l 204 826 l 145 826 l 268 1011 m 139 708 l 207 708 l 207 0 l 139 0 l 139 708 "},"ˆ":{"x_min":180.5625,"x_max":513.9375,"ha":695,"o":"m 319 996 l 375 996 l 513 826 l 448 826 l 345 920 l 243 826 l 180 826 l 319 996 "},"w":{"x_min":68.0625,"x_max":1127.875,"ha":1196,"o":"m 68 708 l 144 708 l 358 85 l 572 711 l 626 711 l 840 85 l 1054 708 l 1127 708 l 868 -6 l 809 -6 l 598 601 l 386 -6 l 327 -6 l 68 708 "},"$":{"x_min":82.8125,"x_max":777,"ha":878,"o":"m 476 63 q 570 78 527 64 q 643 118 612 93 q 689 177 673 143 q 706 250 706 211 l 706 253 q 696 317 706 288 q 660 369 686 346 q 588 412 633 393 q 476 446 544 431 l 476 63 m 415 909 q 252 854 313 906 q 192 727 192 802 l 192 724 q 201 662 192 690 q 236 609 211 633 q 304 565 261 585 q 415 529 347 546 l 415 909 m 412 1 q 236 46 316 9 q 82 150 157 84 l 128 204 q 261 108 193 143 q 415 66 330 72 l 415 460 q 189 555 258 494 q 121 719 121 615 l 121 722 q 142 818 121 773 q 202 897 163 863 q 294 950 241 930 q 412 972 348 970 l 412 1053 l 479 1053 l 479 970 q 622 933 559 962 q 747 854 684 904 l 701 800 q 592 874 647 849 q 476 906 537 899 l 476 516 q 705 421 634 482 q 777 258 777 359 l 777 255 q 755 155 777 201 q 694 75 733 109 q 599 22 654 41 q 479 0 544 2 l 479 -136 l 412 -136 l 412 1 "},"\\":{"x_min":-4.171875,"x_max":719.5,"ha":695,"o":"m -4 1108 l 63 1108 l 719 -178 l 651 -178 l -4 1108 "},"Ì":{"x_min":9.34375,"x_max":226,"ha":381,"o":"m 9 1205 l 94 1247 l 216 1062 l 157 1062 l 9 1205 m 154 972 l 226 972 l 226 0 l 154 0 l 154 972 "},"µ":{"x_min":101,"x_max":1128.625,"ha":1181,"o":"m 591 48 q 758 82 682 48 q 888 175 833 116 q 974 313 943 234 q 1005 483 1005 392 l 1005 486 q 973 656 1005 576 q 887 795 942 736 q 756 889 832 854 q 589 924 679 924 q 422 889 498 924 q 292 796 347 855 q 206 658 237 737 q 176 488 176 579 l 176 486 q 207 315 176 395 q 293 176 238 235 q 424 82 348 117 q 591 48 501 48 m 825 41 q 714 -1 774 13 q 589 -17 655 -17 q 388 23 477 -17 q 234 133 298 64 q 135 292 170 202 q 101 483 101 383 l 101 486 q 136 677 101 586 q 235 837 171 768 q 390 948 299 907 q 591 989 480 989 q 792 948 701 989 q 946 838 882 907 q 1045 679 1010 769 q 1080 488 1080 588 q 1080 485 1081 487 q 1030 262 1080 367 q 892 85 981 156 l 1128 -135 l 1128 -141 l 1024 -141 l 825 41 "},"Ç":{"x_min":101,"x_max":970.5,"ha":1025,"o":"m 432 -169 l 538 -15 q 362 35 442 -6 q 224 144 282 78 q 133 298 166 211 q 101 483 101 384 l 101 486 q 137 680 101 589 q 239 841 174 772 q 392 949 303 909 q 587 989 481 989 q 705 977 652 989 q 803 946 757 966 q 887 896 848 925 q 964 833 927 868 l 913 780 q 846 837 881 811 q 772 883 812 864 q 686 912 732 901 q 585 924 639 924 q 423 890 498 924 q 293 798 348 857 q 207 659 238 739 q 176 488 176 580 l 176 486 q 207 314 176 394 q 294 175 239 234 q 424 82 349 116 q 587 48 499 48 q 770 86 692 48 q 921 199 848 125 l 970 152 q 894 85 933 116 q 810 32 855 54 q 714 -2 766 10 q 602 -17 663 -15 l 509 -206 l 432 -169 "},"’":{"x_min":80.71875,"x_max":213,"ha":319,"o":"m 80 740 q 143 789 125 764 q 158 854 161 814 l 121 854 l 121 972 l 213 972 l 213 869 q 186 766 213 804 q 97 706 160 729 l 80 740 "},"-":{"x_min":97.234375,"x_max":469.484375,"ha":567,"o":"m 97 452 l 469 452 l 469 374 l 97 374 l 97 452 "},"Q":{"x_min":101,"x_max":1091.109375,"ha":1181,"o":"m 591 48 q 733 72 668 48 q 850 139 799 96 l 661 301 l 712 358 l 899 188 q 977 322 949 246 q 1005 483 1005 398 l 1005 486 q 973 656 1005 576 q 887 795 942 736 q 756 889 832 854 q 589 924 679 924 q 422 889 498 924 q 292 796 347 855 q 206 658 237 737 q 176 488 176 579 l 176 486 q 207 315 176 395 q 293 176 238 235 q 424 82 348 117 q 591 48 501 48 m 903 94 q 762 12 840 41 q 589 -17 683 -17 q 388 23 477 -17 q 234 133 298 64 q 135 292 170 202 q 101 483 101 383 l 101 486 q 136 677 101 586 q 235 837 171 768 q 390 948 299 907 q 591 989 480 989 q 792 948 701 989 q 946 838 882 907 q 1045 679 1010 769 q 1080 489 1080 589 q 1080 486 1081 487 q 1047 300 1080 389 q 952 143 1014 212 l 1091 26 l 1039 -29 l 903 94 "},"M":{"x_min":144,"x_max":1062,"ha":1206,"o":"m 144 972 l 212 972 l 603 397 l 994 972 l 1062 972 l 1062 0 l 990 0 l 990 844 l 604 284 l 598 284 l 213 844 l 213 0 l 144 0 l 144 972 "},"C":{"x_min":101,"x_max":970.5,"ha":1025,"o":"m 584 -17 q 391 21 480 -17 q 237 128 302 60 q 137 287 173 195 q 101 483 101 379 l 101 486 q 137 680 101 588 q 239 841 174 772 q 392 949 303 909 q 587 989 481 989 q 705 977 652 989 q 803 946 757 966 q 887 896 848 925 q 964 833 927 868 l 913 780 q 846 837 881 811 q 772 883 812 864 q 686 912 732 901 q 585 924 639 924 q 423 890 498 924 q 293 798 348 857 q 207 659 238 739 q 176 488 176 580 l 176 486 q 207 314 176 394 q 294 175 239 234 q 424 82 349 116 q 587 48 499 48 q 770 86 692 48 q 921 199 848 125 l 970 152 q 890 83 931 114 q 803 30 849 52 q 702 -4 756 7 q 584 -17 648 -17 "},"œ":{"x_min":80,"x_max":1396,"ha":1465,"o":"m 445 47 q 561 71 508 47 q 653 136 615 95 q 713 233 691 177 q 735 351 735 288 l 735 354 q 712 474 735 417 q 650 572 690 530 q 557 637 611 613 q 443 661 504 661 q 327 636 380 661 q 235 571 273 612 q 175 474 197 530 q 154 356 154 419 l 154 354 q 176 233 154 290 q 238 135 198 177 q 331 70 277 94 q 445 47 384 47 m 1322 387 q 1300 490 1317 441 q 1251 578 1283 540 q 1174 639 1220 616 q 1067 662 1129 662 q 969 641 1015 662 q 889 583 923 620 q 833 496 855 546 q 807 387 811 445 l 1322 387 m 441 -17 q 297 12 363 -17 q 182 92 231 42 q 107 209 134 142 q 80 351 80 276 l 80 354 q 107 495 80 429 q 184 613 135 562 q 299 695 232 665 q 444 725 366 725 q 550 709 499 725 q 643 663 601 693 q 716 595 684 634 q 769 508 748 555 q 888 665 808 605 q 1072 725 968 725 q 1205 696 1146 725 q 1307 617 1265 668 q 1373 500 1350 567 q 1396 353 1396 433 q 1396 339 1396 344 q 1394 326 1396 334 l 807 326 q 836 208 811 259 q 898 120 861 156 q 984 65 936 84 q 1084 47 1032 47 q 1225 78 1168 47 q 1327 158 1283 110 l 1375 116 q 1252 20 1320 58 q 1084 -17 1184 -17 q 985 -1 1033 -17 q 895 41 937 13 q 822 110 854 69 q 769 201 790 151 q 716 113 748 153 q 642 44 684 73 q 549 -1 599 14 q 441 -17 498 -17 "},"!":{"x_min":129.171875,"x_max":220.84375,"ha":350,"o":"m 129 118 l 220 118 l 220 0 l 129 0 l 129 118 m 134 874 l 134 972 l 215 972 l 215 874 l 194 253 l 155 253 l 134 874 "},"ç":{"x_min":80,"x_max":730.4375,"ha":793,"o":"m 288 -169 l 394 -14 q 268 26 326 -5 q 169 108 210 59 q 103 220 127 158 q 80 351 80 281 l 80 354 q 107 495 80 429 q 184 613 135 562 q 299 695 233 665 q 441 725 365 725 q 532 714 491 725 q 608 686 573 704 q 671 644 642 667 q 724 594 699 620 l 676 544 q 574 626 630 591 q 440 661 519 661 q 326 637 379 661 q 236 572 274 613 q 176 476 198 531 q 154 356 154 420 l 154 354 q 176 233 154 290 q 239 135 199 177 q 331 70 279 94 q 445 47 384 47 q 579 81 520 47 q 683 165 638 115 l 730 123 q 613 26 677 65 q 458 -17 549 -12 l 365 -206 l 288 -169 "},"È":{"x_min":145,"x_max":843.4375,"ha":931,"o":"m 336 1205 l 420 1247 l 543 1062 l 484 1062 l 336 1205 m 145 972 l 836 972 l 836 905 l 217 905 l 217 524 l 773 524 l 773 457 l 217 457 l 217 67 l 843 67 l 843 0 l 145 0 l 145 972 "},"ﬁ":{"x_min":68.21875,"x_max":718,"ha":849,"o":"m 642 708 l 710 708 l 710 0 l 642 0 l 642 708 m 171 645 l 68 645 l 68 708 l 171 708 l 171 777 q 233 962 171 899 q 381 1018 288 1018 q 438 1013 413 1018 q 487 1001 463 1009 l 487 937 q 433 950 456 946 q 382 955 409 955 q 239 776 239 955 l 239 708 l 486 708 l 486 645 l 239 645 l 239 0 l 171 0 l 171 645 m 634 986 l 718 986 l 718 893 l 634 893 l 634 986 "},"{":{"x_min":82.203125,"x_max":587.734375,"ha":667,"o":"m 578 -196 q 427 -152 484 -177 q 338 -91 369 -126 q 296 -12 307 -57 q 285 85 285 31 l 285 195 q 277 268 285 235 q 250 324 269 301 q 199 359 232 347 q 118 372 166 372 l 82 372 l 82 425 l 118 425 q 199 437 166 425 q 250 472 232 450 q 277 528 269 495 q 285 601 285 561 l 285 711 q 296 809 285 765 q 338 888 307 854 q 427 949 369 923 q 578 993 484 974 l 587 948 q 461 906 508 927 q 390 858 414 886 q 359 792 366 830 q 353 702 353 755 l 353 598 q 342 519 353 552 q 313 462 332 486 q 268 423 294 438 q 208 398 241 408 q 270 372 243 387 q 315 333 297 356 q 343 277 333 310 q 353 198 353 244 l 353 94 q 359 4 353 41 q 390 -61 366 -33 q 461 -109 414 -89 q 587 -151 508 -130 l 578 -196 "},"X":{"x_min":70.84375,"x_max":932.015625,"ha":1003,"o":"m 458 495 l 84 972 l 170 972 l 502 544 l 833 972 l 918 972 l 545 497 l 932 0 l 845 0 l 500 448 l 155 0 l 70 0 l 458 495 "},"ô":{"x_min":81,"x_max":808,"ha":889,"o":"m 416 996 l 472 996 l 610 826 l 545 826 l 443 920 l 340 826 l 278 826 l 416 996 m 445 47 q 561 71 508 47 q 652 136 614 95 q 712 233 691 177 q 734 351 734 288 l 734 354 q 711 474 734 417 q 650 572 689 530 q 557 637 610 613 q 443 661 504 661 q 327 636 380 661 q 236 571 274 612 q 176 474 197 530 q 155 356 155 419 l 155 354 q 177 233 155 290 q 238 135 199 177 q 331 70 278 94 q 445 47 384 47 m 443 -17 q 298 12 364 -17 q 183 92 232 42 q 108 209 135 142 q 81 351 81 276 l 81 354 q 108 495 81 429 q 184 613 135 562 q 300 695 233 665 q 445 725 366 725 q 590 695 524 725 q 705 615 656 665 q 780 498 753 565 q 808 356 808 431 l 808 354 q 780 212 808 278 q 704 94 753 145 q 588 12 655 42 q 443 -17 522 -17 "},"#":{"x_min":68.0625,"x_max":902.84375,"ha":972,"o":"m 601 325 l 658 653 l 370 653 l 313 325 l 601 325 m 236 260 l 68 260 l 68 325 l 247 325 l 304 653 l 123 653 l 123 718 l 315 718 l 358 972 l 425 972 l 381 718 l 669 718 l 712 972 l 779 972 l 736 718 l 902 718 l 902 653 l 725 653 l 668 325 l 847 325 l 847 260 l 657 260 l 612 0 l 545 0 l 590 260 l 302 260 l 258 0 l 191 0 l 236 260 "},"Ê":{"x_min":145,"x_max":843.4375,"ha":931,"o":"m 456 1232 l 512 1232 l 651 1062 l 586 1062 l 483 1156 l 380 1062 l 318 1062 l 456 1232 m 145 972 l 836 972 l 836 905 l 217 905 l 217 524 l 773 524 l 773 457 l 217 457 l 217 67 l 843 67 l 843 0 l 145 0 l 145 972 "},")":{"x_min":85.3125,"x_max":499,"ha":597,"o":"m 85 -150 q 338 87 250 -48 q 427 398 427 223 q 338 709 427 573 q 85 947 250 845 l 114 993 q 399 738 299 888 q 499 398 499 588 q 399 58 499 208 q 114 -196 299 -91 l 85 -150 "},"Å":{"x_min":61.578125,"x_max":1035.40625,"ha":1097,"o":"m 802 337 l 547 899 l 290 337 l 802 337 m 548 975 q 608 1000 582 975 q 634 1060 634 1025 l 634 1062 q 609 1122 634 1097 q 548 1148 584 1148 q 487 1122 512 1148 q 463 1062 463 1097 l 463 1060 q 488 1000 463 1025 q 548 975 514 975 m 495 940 q 436 987 460 955 q 413 1060 413 1019 l 413 1062 q 424 1112 413 1089 q 453 1153 435 1136 q 496 1181 472 1171 q 548 1192 520 1192 q 599 1181 574 1192 q 643 1153 624 1171 q 672 1112 661 1136 q 684 1062 684 1089 l 684 1060 q 660 988 684 1019 q 601 941 636 957 l 1035 0 l 956 0 l 832 272 l 260 272 l 136 0 l 61 0 l 495 940 "},"ø":{"x_min":60.171875,"x_max":828.84375,"ha":889,"o":"m 445 47 q 561 71 507 47 q 652 136 614 95 q 712 233 690 177 q 734 351 734 288 l 734 353 q 716 460 734 410 q 668 549 699 509 l 254 119 q 341 65 293 84 q 445 47 389 47 m 634 587 q 547 641 595 622 q 443 661 499 661 q 327 636 381 661 q 236 571 274 612 q 176 474 198 530 q 155 356 155 419 l 155 354 q 171 247 155 297 q 220 158 188 198 l 634 587 m 443 -17 q 316 5 375 -17 q 211 66 257 27 l 139 -7 l 60 -7 l 169 106 q 104 218 128 155 q 81 351 81 281 l 81 354 q 108 495 81 429 q 184 613 135 562 q 300 695 233 665 q 445 725 366 725 q 572 702 513 725 q 677 640 631 680 l 749 718 l 828 718 l 717 601 q 784 490 760 552 q 808 356 808 427 l 808 354 q 780 212 808 278 q 704 94 753 145 q 588 12 655 42 q 443 -17 522 -17 "},"â":{"x_min":71,"x_max":682,"ha":797,"o":"m 375 996 l 430 996 l 569 827 l 504 827 l 401 921 l 298 827 l 236 827 l 375 996 m 348 47 q 450 62 402 47 q 536 107 499 78 q 594 176 573 136 q 616 265 616 216 l 616 346 q 511 367 571 357 q 376 378 452 378 q 203 332 263 378 q 143 212 143 287 l 143 209 q 159 140 143 170 q 204 90 176 110 q 270 58 233 69 q 348 47 308 47 m 344 -17 q 245 -3 294 -17 q 158 38 197 10 q 95 108 119 66 q 71 205 71 149 l 71 208 q 93 306 71 263 q 157 379 116 350 q 254 423 197 408 q 380 439 311 439 q 509 430 455 439 q 615 408 563 422 l 615 439 q 553 601 615 547 q 381 656 491 656 q 262 640 316 656 q 159 599 208 624 l 135 658 q 252 703 193 686 q 385 720 312 720 q 609 642 531 720 q 682 442 682 569 l 682 0 l 615 0 l 615 117 q 571 68 597 92 q 512 25 545 44 q 436 -5 479 6 q 344 -17 394 -17 "},"}":{"x_min":79.265625,"x_max":584.796875,"ha":667,"o":"m 79 -151 q 205 -109 158 -130 q 276 -61 252 -89 q 307 4 300 -33 q 314 94 314 41 l 314 198 q 324 277 314 244 q 353 334 334 310 q 398 373 372 358 q 458 398 425 388 q 396 424 423 409 q 351 463 369 440 q 323 519 333 486 q 314 598 314 552 l 314 702 q 307 792 314 755 q 276 858 300 830 q 205 906 252 886 q 79 948 158 927 l 88 993 q 239 949 182 974 q 328 888 297 923 q 370 809 359 854 q 382 711 382 765 l 382 601 q 389 528 382 561 q 416 472 397 495 q 467 437 434 450 q 548 425 500 425 l 584 425 l 584 372 l 548 372 q 467 359 500 372 q 416 324 434 347 q 389 268 397 301 q 382 195 382 235 l 382 85 q 370 -12 382 31 q 328 -91 359 -57 q 239 -152 297 -126 q 88 -196 182 -177 l 79 -151 "},"‰":{"x_min":77,"x_max":1590,"ha":1667,"o":"m 855 49 q 911 63 886 49 q 956 103 937 78 q 985 161 975 128 q 996 234 996 195 l 996 237 q 984 312 996 277 q 953 371 973 347 q 907 411 933 396 q 852 426 881 426 q 796 411 821 426 q 751 371 770 396 q 722 311 732 345 q 712 240 712 277 l 712 237 q 723 161 712 195 q 754 101 734 126 q 800 62 774 76 q 855 49 826 49 m 1377 49 q 1434 63 1408 49 q 1478 103 1459 78 q 1507 161 1497 128 q 1518 234 1518 195 l 1518 237 q 1506 312 1518 277 q 1475 371 1495 347 q 1429 411 1455 396 q 1375 426 1404 426 q 1318 411 1344 426 q 1274 371 1293 396 q 1245 311 1255 345 q 1235 240 1235 277 l 1235 237 q 1246 161 1235 195 q 1277 101 1257 126 q 1323 62 1297 76 q 1377 49 1348 49 m 291 546 q 348 560 322 546 q 392 600 373 575 q 421 658 411 625 q 432 731 432 692 l 432 734 q 420 809 432 774 q 389 868 409 844 q 343 908 369 893 q 289 923 318 923 q 232 908 258 923 q 188 868 207 893 q 159 808 169 842 q 149 737 149 774 l 149 734 q 160 658 149 692 q 191 598 171 623 q 237 559 211 573 q 291 546 262 546 m 852 -11 q 765 9 803 -11 q 698 63 726 29 q 655 141 670 97 q 640 234 640 186 l 640 237 q 655 331 640 286 q 699 410 670 376 q 767 465 727 444 q 855 486 806 486 q 942 465 902 486 q 1009 411 981 445 q 1052 331 1037 376 q 1068 240 1068 287 l 1068 237 q 1052 143 1068 188 q 1008 63 1037 98 q 940 9 980 29 q 852 -11 901 -11 m 1375 -11 q 1287 9 1326 -11 q 1221 63 1248 29 q 1178 141 1193 97 q 1163 234 1163 186 l 1163 237 q 1178 331 1163 286 q 1221 410 1193 376 q 1289 465 1250 444 q 1377 486 1329 486 q 1464 465 1425 486 q 1531 411 1504 445 q 1574 331 1559 376 q 1590 240 1590 287 l 1590 237 q 1574 143 1590 188 q 1531 63 1559 98 q 1463 9 1502 29 q 1375 -11 1423 -11 m 891 972 l 966 971 l 253 0 l 178 0 l 891 972 m 289 486 q 201 506 240 486 q 135 560 162 526 q 92 638 107 594 q 77 731 77 683 l 77 734 q 92 828 77 783 q 135 907 107 873 q 203 962 164 941 q 291 983 243 983 q 378 962 339 983 q 445 908 418 942 q 488 828 473 873 q 504 737 504 784 l 504 734 q 488 640 504 685 q 445 560 473 595 q 377 506 416 526 q 289 486 337 486 "},"Ä":{"x_min":61.109375,"x_max":1036.1875,"ha":1097,"o":"m 388 1174 l 484 1174 l 484 1063 l 388 1063 l 388 1174 m 613 1174 l 709 1174 l 709 1063 l 613 1063 l 613 1174 m 802 337 l 547 899 l 290 337 l 802 337 m 513 979 l 583 979 l 1036 0 l 957 0 l 833 272 l 259 272 l 136 0 l 61 0 l 513 979 "},"¸":{"x_min":225.015625,"x_max":409.75,"ha":695,"o":"m 225 -169 l 350 14 l 409 14 l 301 -206 l 225 -169 "},"a":{"x_min":71,"x_max":682,"ha":797,"o":"m 348 47 q 450 62 402 47 q 536 107 499 78 q 594 176 573 136 q 616 265 616 216 l 616 346 q 511 367 571 357 q 376 378 452 378 q 203 332 263 378 q 143 212 143 287 l 143 209 q 159 140 143 170 q 204 90 176 110 q 270 58 233 69 q 348 47 308 47 m 344 -17 q 245 -3 294 -17 q 158 38 197 10 q 95 108 119 66 q 71 205 71 149 l 71 208 q 93 306 71 263 q 157 379 116 350 q 254 423 197 408 q 380 439 311 439 q 509 430 455 439 q 615 408 563 422 l 615 439 q 553 601 615 547 q 381 656 491 656 q 262 640 316 656 q 159 599 208 624 l 135 658 q 252 703 193 686 q 385 720 312 720 q 609 642 531 720 q 682 442 682 569 l 682 0 l 615 0 l 615 117 q 571 68 597 92 q 512 25 545 44 q 436 -5 479 6 q 344 -17 394 -17 "},"—":{"x_min":97.234375,"x_max":1150.09375,"ha":1247,"o":"m 97 449 l 1150 449 l 1150 377 l 97 377 l 97 449 "},"=":{"x_min":129.171875,"x_max":759.78125,"ha":889,"o":"m 129 368 l 759 368 l 759 297 l 129 297 l 129 368 m 129 681 l 759 681 l 759 610 l 129 610 l 129 681 "},"N":{"x_min":144,"x_max":953,"ha":1097,"o":"m 144 972 l 212 972 l 884 126 l 884 972 l 953 972 l 953 0 l 898 0 l 213 863 l 213 0 l 144 0 l 144 972 "},"˚":{"x_min":211,"x_max":484,"ha":695,"o":"m 347 868 q 408 893 382 868 q 434 953 434 918 l 434 955 q 408 1015 434 990 q 347 1041 383 1041 q 286 1015 311 1041 q 261 955 261 990 l 261 953 q 286 893 261 918 q 347 868 312 868 m 347 824 q 295 834 319 824 q 252 862 270 844 q 222 903 233 879 q 211 953 211 926 l 211 955 q 222 1005 211 982 q 252 1046 233 1029 q 295 1074 270 1064 q 347 1085 319 1085 q 399 1074 373 1085 q 442 1046 424 1064 q 472 1005 461 1029 q 484 955 484 982 l 484 953 q 472 903 484 926 q 442 862 461 879 q 399 834 424 844 q 347 824 373 824 "},"ú":{"x_min":115,"x_max":722,"ha":851,"o":"m 506 1004 l 591 962 l 442 819 l 384 819 l 506 1004 m 398 -17 q 278 4 331 -17 q 189 64 226 26 q 133 157 152 103 q 115 274 115 210 l 115 708 l 183 708 l 183 287 q 241 111 183 177 q 408 46 299 46 q 504 64 459 46 q 583 116 549 83 q 635 196 616 150 q 654 298 654 243 l 654 708 l 722 708 l 722 0 l 654 0 l 654 131 q 556 26 617 69 q 398 -17 495 -17 "},"⁄":{"x_min":-93.0625,"x_max":632,"ha":569,"o":"m 556 1053 l 632 1053 l -18 -136 l -93 -136 l 556 1053 "},"2":{"x_min":67.171875,"x_max":731,"ha":820,"o":"m 67 54 l 429 381 q 530 480 489 436 q 597 563 571 524 q 633 638 622 602 q 645 713 645 674 q 626 799 645 760 q 579 865 608 838 q 508 907 549 892 q 425 922 468 922 q 267 875 332 922 q 140 741 201 828 l 86 777 q 152 864 118 826 q 227 929 186 902 q 318 971 268 956 q 432 986 368 986 q 547 965 494 986 q 638 909 600 945 q 698 824 676 873 q 721 719 721 776 l 721 716 q 707 622 721 666 q 663 535 693 578 q 587 444 633 491 q 477 338 541 396 l 180 69 l 731 69 l 731 0 l 67 0 l 67 54 "},"ü":{"x_min":115,"x_max":722,"ha":851,"o":"m 267 938 l 363 938 l 363 827 l 267 827 l 267 938 m 493 938 l 589 938 l 589 827 l 493 827 l 493 938 m 398 -17 q 278 4 331 -17 q 189 64 226 26 q 133 157 152 103 q 115 274 115 210 l 115 708 l 183 708 l 183 287 q 241 111 183 177 q 408 46 299 46 q 504 64 459 46 q 583 116 549 83 q 635 196 616 150 q 654 298 654 243 l 654 708 l 722 708 l 722 0 l 654 0 l 654 131 q 556 26 617 69 q 398 -17 495 -17 "},"¯":{"x_min":138.90625,"x_max":555.59375,"ha":695,"o":"m 138 907 l 555 907 l 555 833 l 138 833 l 138 907 "},"Z":{"x_min":94.453125,"x_max":862.5625,"ha":956,"o":"m 94 40 l 759 907 l 118 907 l 118 972 l 862 972 l 862 931 l 197 65 l 862 65 l 862 0 l 94 0 l 94 40 "},"u":{"x_min":115,"x_max":722,"ha":851,"o":"m 398 -17 q 278 4 331 -17 q 189 64 226 26 q 133 157 152 103 q 115 274 115 210 l 115 708 l 183 708 l 183 287 q 241 111 183 177 q 408 46 299 46 q 504 64 459 46 q 583 116 549 83 q 635 196 616 150 q 654 298 654 243 l 654 708 l 722 708 l 722 0 l 654 0 l 654 131 q 556 26 617 69 q 398 -17 495 -17 "},"˜":{"x_min":141.671875,"x_max":552.828125,"ha":695,"o":"m 141 826 q 188 928 161 901 q 258 956 216 956 q 301 946 277 956 q 349 927 325 937 q 395 908 373 917 q 436 899 418 899 q 475 913 461 899 q 505 968 490 927 l 552 955 q 505 853 533 880 q 436 827 477 827 q 393 836 416 827 q 345 855 369 845 q 298 874 320 865 q 258 884 276 884 q 218 869 233 884 q 188 814 204 854 l 141 826 "},"Ó":{"x_min":101,"x_max":1080.703125,"ha":1181,"o":"m 690 1247 l 775 1205 l 626 1062 l 568 1062 l 690 1247 m 591 48 q 758 82 682 48 q 888 175 833 116 q 974 313 943 234 q 1005 483 1005 392 l 1005 486 q 973 656 1005 576 q 887 795 942 736 q 756 889 832 854 q 589 924 679 924 q 422 889 498 924 q 292 796 347 855 q 206 658 237 737 q 176 488 176 579 l 176 486 q 207 315 176 395 q 293 176 238 235 q 424 82 348 117 q 591 48 501 48 m 589 -17 q 388 23 477 -17 q 234 133 298 64 q 135 292 170 202 q 101 483 101 383 l 101 486 q 136 677 101 586 q 235 837 171 768 q 390 948 299 907 q 591 989 480 989 q 792 948 701 989 q 946 838 882 907 q 1045 679 1010 769 q 1080 488 1080 588 q 1080 486 1081 487 q 1044 294 1080 385 q 945 134 1009 203 q 790 23 881 64 q 589 -17 698 -17 "},"k":{"x_min":129,"x_max":735.9375,"ha":778,"o":"m 129 1014 l 197 1014 l 197 254 l 635 708 l 726 708 l 416 394 l 735 0 l 649 0 l 369 345 l 197 172 l 197 0 l 129 0 l 129 1014 "},"ˇ":{"x_min":180.5625,"x_max":513.9375,"ha":695,"o":"m 180 996 l 245 996 l 348 901 l 451 996 l 513 996 l 375 826 l 319 826 l 180 996 "},"Ù":{"x_min":129,"x_max":927,"ha":1056,"o":"m 355 1198 l 440 1240 l 562 1055 l 504 1055 l 355 1198 m 528 -15 q 367 12 440 -15 q 240 92 294 39 q 158 223 187 146 q 129 404 129 301 l 129 972 l 201 972 l 201 411 q 287 143 201 237 q 530 50 374 50 q 664 72 604 50 q 766 138 724 94 q 832 249 809 183 q 855 404 855 316 l 855 972 l 927 972 l 927 412 q 897 228 927 308 q 815 94 868 148 q 689 12 762 40 q 528 -15 616 -15 "},"Ÿ":{"x_min":44.3125,"x_max":949.703125,"ha":995,"o":"m 336 1167 l 432 1167 l 432 1056 l 336 1056 l 336 1167 m 562 1167 l 658 1167 l 658 1056 l 562 1056 l 562 1167 m 461 384 l 44 972 l 134 972 l 498 449 l 863 972 l 949 972 l 533 386 l 533 0 l 461 0 l 461 384 "},"¢":{"x_min":86,"x_max":736.046875,"ha":807,"o":"m 458 800 l 446 800 q 332 776 385 800 q 242 711 280 752 q 182 615 204 670 q 160 495 160 559 l 160 493 q 211 317 160 394 q 344 206 262 240 l 458 800 m 327 143 q 229 196 273 161 q 152 276 184 230 q 103 377 120 322 q 86 490 86 432 l 86 493 q 113 634 86 568 q 190 752 141 701 q 304 834 238 804 q 447 864 370 864 l 467 864 l 490 981 l 559 981 l 534 854 q 645 806 598 839 q 730 733 691 773 l 681 683 q 608 748 647 719 q 517 790 569 778 l 402 190 q 451 186 424 186 q 585 220 526 186 q 688 304 644 254 l 736 262 q 613 161 681 201 q 447 122 544 122 q 392 126 419 122 l 366 -8 l 297 -8 l 327 143 "},"Ω":{"x_min":68.21875,"x_max":990.640625,"ha":1006,"o":"m 171 645 l 68 645 l 68 708 l 171 708 l 171 777 q 233 962 171 899 q 381 1018 288 1018 q 439 1013 413 1018 q 487 1001 464 1009 l 487 937 q 433 950 457 946 q 382 955 409 955 q 239 776 239 955 l 239 708 l 486 708 l 486 645 l 239 645 l 239 0 l 171 0 l 171 645 m 674 645 l 571 645 l 571 708 l 674 708 l 674 777 q 736 962 674 899 q 885 1018 792 1018 q 942 1013 917 1018 q 990 1001 967 1009 l 990 937 q 936 950 960 946 q 885 955 912 955 q 742 776 742 955 l 742 708 l 989 708 l 989 645 l 742 645 l 742 0 l 674 0 l 674 645 "},"ß":{"x_min":129,"x_max":774,"ha":861,"o":"m 401 57 q 620 110 540 59 q 700 259 700 161 l 700 262 q 619 408 700 357 q 400 475 539 459 l 400 532 q 495 569 452 547 q 569 621 538 591 q 618 689 600 651 q 637 775 637 728 l 637 778 q 621 850 637 816 q 579 908 606 884 q 514 946 552 932 q 430 960 475 960 q 337 941 380 960 q 262 888 294 922 q 214 805 231 854 q 197 694 197 755 l 197 0 l 129 0 l 129 694 q 150 827 129 766 q 211 931 172 887 q 307 999 251 975 q 434 1024 363 1024 q 547 1005 497 1024 q 635 953 598 986 q 691 876 672 921 q 711 780 711 832 l 711 778 q 692 685 711 727 q 643 609 673 643 q 572 552 612 576 q 493 513 533 527 q 598 485 547 504 q 687 436 648 466 q 750 363 726 405 q 774 265 774 320 l 774 262 q 748 150 774 199 q 673 67 722 101 q 556 15 624 33 q 401 -3 487 -3 l 401 57 "},"é":{"x_min":81,"x_max":742,"ha":811,"o":"m 479 1011 l 564 969 l 415 826 l 357 826 l 479 1011 m 668 387 q 646 490 663 441 q 597 577 629 539 q 520 639 566 616 q 413 662 475 662 q 315 641 361 662 q 235 583 269 620 q 179 496 201 546 q 153 387 157 445 l 668 387 m 428 -17 q 295 9 358 -17 q 184 84 232 35 q 108 201 136 133 q 81 352 81 269 l 81 355 q 106 499 81 431 q 177 616 132 566 q 283 695 222 666 q 417 725 344 725 q 551 696 492 725 q 653 617 611 668 q 719 500 696 567 q 742 353 742 433 q 742 339 742 344 q 741 326 742 334 l 153 326 q 182 208 157 259 q 244 120 207 156 q 330 65 282 84 q 430 47 378 47 q 571 78 514 47 q 674 158 629 110 l 721 116 q 598 20 667 58 q 428 -17 529 -17 "},"s":{"x_min":68.71875,"x_max":602,"ha":690,"o":"m 358 -14 q 203 14 280 -14 q 68 88 125 43 l 109 143 q 230 74 167 98 q 362 50 294 50 q 483 86 434 50 q 533 184 533 122 l 533 187 q 517 240 533 218 q 476 279 502 262 q 416 306 449 295 q 345 329 383 317 q 259 355 302 341 q 180 390 215 369 q 124 444 146 412 q 103 523 103 476 l 103 526 q 120 604 103 569 q 167 666 137 640 q 241 707 198 692 q 335 722 284 722 q 467 701 399 722 q 587 644 534 680 l 551 587 q 446 638 502 619 q 333 658 390 658 q 215 622 259 658 q 172 534 172 587 l 172 531 q 188 480 172 502 q 232 444 205 459 q 295 417 259 428 q 368 394 331 405 q 453 367 411 381 q 528 329 495 352 q 581 274 561 306 q 602 195 602 242 l 602 192 q 583 107 602 145 q 531 42 564 69 q 453 0 498 15 q 358 -14 409 -14 "},"B":{"x_min":145,"x_max":916,"ha":1003,"o":"m 569 67 q 768 120 694 67 q 842 265 842 173 l 842 268 q 766 407 842 358 q 546 457 690 457 l 217 457 l 217 67 l 569 67 m 537 524 q 637 537 591 524 q 716 575 682 550 q 768 637 749 600 q 787 723 787 675 l 787 726 q 724 855 787 806 q 544 905 662 905 l 217 905 l 217 524 l 537 524 m 145 972 l 546 972 q 693 949 629 972 q 798 885 758 926 q 861 733 861 823 l 861 730 q 846 643 861 680 q 808 577 831 605 q 755 531 784 550 q 696 500 725 512 q 779 470 739 489 q 850 423 820 451 q 897 356 879 394 q 916 268 916 318 l 916 265 q 890 154 916 204 q 820 71 865 105 q 710 18 774 37 q 567 0 646 0 l 145 0 l 145 972 "},"…":{"x_min":114,"x_max":831,"ha":945,"o":"m 114 115 l 203 115 l 203 0 l 114 0 l 114 115 m 428 115 l 517 115 l 517 0 l 428 0 l 428 115 m 742 115 l 831 115 l 831 0 l 742 0 l 742 115 "},"?":{"x_min":47.140625,"x_max":670,"ha":742,"o":"m 294 118 l 386 118 l 386 0 l 294 0 l 294 118 m 300 479 l 307 486 q 520 548 445 489 q 596 708 596 608 l 596 711 q 580 792 596 754 q 534 859 564 830 q 461 904 504 887 q 365 921 418 921 q 216 882 281 921 q 97 777 151 844 l 47 819 q 181 939 106 893 q 368 985 256 985 q 492 963 436 985 q 587 905 548 941 q 648 818 626 868 q 670 714 670 769 l 670 711 q 646 596 670 645 q 583 511 622 547 q 489 455 543 476 q 375 427 434 434 l 362 254 l 318 254 l 300 479 "},"H":{"x_min":144,"x_max":912,"ha":1056,"o":"m 144 972 l 216 972 l 216 522 l 840 522 l 840 972 l 912 972 l 912 0 l 840 0 l 840 455 l 216 455 l 216 0 l 144 0 l 144 972 "},"î":{"x_min":5.5625,"x_max":338.921875,"ha":346,"o":"m 144 996 l 200 996 l 338 826 l 273 826 l 170 920 l 68 826 l 5 826 l 144 996 m 139 708 l 207 708 l 207 0 l 139 0 l 139 708 "},"c":{"x_min":80,"x_max":730.4375,"ha":793,"o":"m 441 -17 q 299 12 365 -17 q 184 92 233 42 q 107 209 135 142 q 80 351 80 276 l 80 354 q 107 495 80 429 q 184 613 135 562 q 299 695 233 665 q 441 725 365 725 q 532 714 491 725 q 608 686 573 704 q 671 644 642 667 q 724 594 699 620 l 676 544 q 574 626 630 591 q 440 661 519 661 q 326 637 379 661 q 236 572 274 613 q 176 476 198 531 q 154 356 154 420 l 154 354 q 176 233 154 290 q 239 135 199 177 q 331 70 279 94 q 445 47 384 47 q 579 81 520 47 q 683 165 638 115 l 730 123 q 607 22 676 62 q 441 -17 538 -17 "},"¶":{"x_min":73.078125,"x_max":536,"ha":667,"o":"m 462 384 l 453 384 q 303 404 373 384 q 182 461 234 423 q 102 552 131 498 q 73 677 73 606 l 73 680 q 99 802 73 748 q 173 894 125 856 q 287 951 221 931 q 432 972 353 972 l 536 972 l 536 0 l 462 0 l 462 384 "},"•":{"x_min":154,"x_max":498,"ha":653,"o":"m 326 317 q 258 330 289 317 q 204 366 227 343 q 167 421 181 390 q 154 487 154 451 l 154 490 q 167 556 154 525 q 206 611 181 587 q 261 647 230 634 q 326 661 292 661 q 390 647 359 661 q 445 611 421 634 q 483 556 468 587 q 498 490 498 525 l 498 487 q 484 421 498 451 q 447 366 470 390 q 392 330 424 343 q 326 317 360 317 "},"¥":{"x_min":44.75,"x_max":908.25,"ha":953,"o":"m 442 173 l 146 173 l 146 236 l 442 236 l 442 372 l 146 372 l 146 435 l 417 435 l 44 972 l 132 972 l 477 454 l 824 972 l 908 972 l 534 435 l 806 435 l 806 372 l 511 372 l 511 236 l 806 236 l 806 173 l 511 173 l 511 0 l 442 0 l 442 173 "},"(":{"x_min":99,"x_max":512.703125,"ha":597,"o":"m 483 -196 q 198 58 298 -91 q 99 398 99 208 q 198 738 99 588 q 483 993 298 888 l 512 947 q 259 709 347 845 q 171 398 171 573 q 259 87 171 223 q 512 -150 347 -48 l 483 -196 "},"U":{"x_min":129,"x_max":927,"ha":1056,"o":"m 528 -15 q 367 12 440 -15 q 240 92 294 39 q 158 223 187 146 q 129 404 129 301 l 129 972 l 201 972 l 201 411 q 287 143 201 237 q 530 50 374 50 q 664 72 604 50 q 766 138 724 94 q 832 249 809 183 q 855 404 855 316 l 855 972 l 927 972 l 927 412 q 897 228 927 308 q 815 94 868 148 q 689 12 762 40 q 528 -15 616 -15 "},"Ñ":{"x_min":144,"x_max":953,"ha":1097,"o":"m 343 1063 q 390 1165 362 1138 q 459 1192 418 1192 q 502 1182 479 1192 q 550 1163 526 1173 q 597 1144 575 1153 q 637 1135 619 1135 q 677 1149 662 1135 q 707 1204 691 1163 l 754 1191 q 707 1089 734 1116 q 637 1063 679 1063 q 594 1072 618 1063 q 546 1091 570 1081 q 500 1110 522 1101 q 459 1120 477 1120 q 420 1105 434 1120 q 390 1050 405 1090 l 343 1063 m 144 972 l 212 972 l 884 126 l 884 972 l 953 972 l 953 0 l 898 0 l 213 863 l 213 0 l 144 0 l 144 972 "},"F":{"x_min":145,"x_max":829.546875,"ha":911,"o":"m 145 972 l 829 972 l 829 905 l 217 905 l 217 507 l 767 507 l 767 440 l 217 440 l 217 0 l 145 0 l 145 972 "},"­":{"x_min":97.234375,"x_max":469.484375,"ha":567,"o":"m 97 452 l 469 452 l 469 374 l 97 374 l 97 452 "},":":{"x_min":121,"x_max":213,"ha":333,"o":"m 121 118 l 213 118 l 213 0 l 121 0 l 121 118 m 121 708 l 213 708 l 213 590 l 121 590 l 121 708 "},"Û":{"x_min":129,"x_max":927,"ha":1056,"o":"m 500 1225 l 555 1225 l 694 1055 l 629 1055 l 526 1150 l 423 1055 l 361 1055 l 500 1225 m 528 -15 q 367 12 440 -15 q 240 92 294 39 q 158 223 187 146 q 129 404 129 301 l 129 972 l 201 972 l 201 411 q 287 143 201 237 q 530 50 374 50 q 664 72 604 50 q 766 138 724 94 q 832 249 809 183 q 855 404 855 316 l 855 972 l 927 972 l 927 412 q 897 228 927 308 q 815 94 868 148 q 689 12 762 40 q 528 -15 616 -15 "},"*":{"x_min":104.171875,"x_max":493.09375,"ha":597,"o":"m 281 740 l 134 640 l 104 691 l 268 769 l 104 847 l 134 898 l 281 798 l 269 975 l 327 975 l 315 798 l 462 898 l 493 847 l 329 769 l 493 691 l 462 640 l 315 740 l 327 564 l 269 564 l 281 740 "},"†":{"x_min":87.75,"x_max":482.234375,"ha":569,"o":"m 261 727 l 87 718 l 87 780 l 260 771 l 250 972 l 319 972 l 310 771 l 482 780 l 482 718 l 309 727 l 315 331 l 254 331 l 261 727 "},"∕":{"x_min":-93.0625,"x_max":632,"ha":569,"o":"m 556 1053 l 632 1053 l -18 -136 l -93 -136 l 556 1053 "},"°":{"x_min":103,"x_max":522,"ha":625,"o":"m 312 633 q 368 644 343 633 q 413 676 394 656 q 442 721 432 695 q 453 775 453 747 l 453 777 q 442 831 453 805 q 413 876 432 857 q 368 908 394 896 q 312 920 343 920 q 256 908 281 920 q 211 876 230 896 q 182 831 192 857 q 172 777 172 805 l 172 775 q 182 721 172 747 q 211 676 192 695 q 256 644 230 656 q 312 633 281 633 m 312 572 q 233 588 270 572 q 166 633 195 605 q 120 697 137 661 q 103 775 103 734 l 103 777 q 120 855 103 818 q 166 919 137 891 q 233 964 195 947 q 312 981 270 981 q 391 964 354 981 q 458 919 429 947 q 504 855 487 891 q 522 777 522 818 l 522 775 q 504 697 522 734 q 458 633 487 661 q 391 588 429 605 q 312 572 354 572 "},"V":{"x_min":61.109375,"x_max":980.640625,"ha":1042,"o":"m 61 972 l 141 972 l 522 77 l 904 972 l 980 972 l 552 -7 l 488 -7 l 61 972 "},"å":{"x_min":71,"x_max":682,"ha":797,"o":"m 403 868 q 463 893 437 868 q 489 953 489 918 l 489 955 q 464 1015 489 990 q 403 1041 439 1041 q 341 1015 366 1041 q 317 955 317 990 l 317 953 q 342 893 317 918 q 403 868 368 868 m 403 824 q 350 834 375 824 q 307 862 326 844 q 278 903 289 879 q 267 953 267 926 l 267 955 q 278 1005 267 982 q 307 1046 289 1029 q 350 1074 326 1064 q 403 1085 375 1085 q 454 1074 429 1085 q 498 1046 479 1064 q 527 1005 516 1029 q 539 955 539 982 l 539 953 q 527 903 539 926 q 498 862 516 879 q 454 834 479 844 q 403 824 429 824 m 348 47 q 450 62 402 47 q 536 107 499 78 q 594 176 573 136 q 616 265 616 216 l 616 346 q 511 367 571 357 q 376 378 452 378 q 203 332 263 378 q 143 212 143 287 l 143 209 q 159 140 143 170 q 204 90 176 110 q 270 58 233 69 q 348 47 308 47 m 344 -17 q 245 -3 294 -17 q 158 38 197 10 q 95 108 119 66 q 71 205 71 149 l 71 208 q 93 306 71 263 q 157 379 116 350 q 254 423 197 408 q 380 439 311 439 q 509 430 455 439 q 615 408 563 422 l 615 439 q 553 601 615 547 q 381 656 491 656 q 262 640 316 656 q 159 599 208 624 l 134 658 q 252 703 192 686 q 385 720 312 720 q 609 642 531 720 q 682 442 682 569 l 682 0 l 615 0 l 615 117 q 571 68 597 92 q 512 25 545 44 q 436 -5 479 6 q 344 -17 394 -17 "}," ":{"x_min":0,"x_max":0,"ha":417},"0":{"x_min":90,"x_max":896,"ha":986,"o":"m 494 48 q 629 84 569 48 q 732 180 690 120 q 798 319 775 241 q 821 483 821 398 l 821 486 q 798 650 821 570 q 732 789 775 729 q 627 887 688 850 q 491 924 566 924 q 356 887 416 924 q 253 791 295 851 q 187 652 210 730 q 165 488 165 573 l 165 486 q 187 322 165 401 q 253 182 210 244 q 358 84 297 121 q 494 48 419 48 m 491 -17 q 324 23 398 -17 q 197 132 249 63 q 117 292 145 201 q 90 483 90 383 l 90 486 q 118 677 90 586 q 199 838 146 769 q 326 948 252 907 q 494 989 401 989 q 661 948 587 989 q 788 839 736 908 q 868 679 840 770 q 896 488 896 588 l 896 486 q 867 294 896 385 q 786 133 839 202 q 659 23 733 64 q 491 -17 584 -17 "},"”":{"x_min":80.71875,"x_max":462,"ha":569,"o":"m 80 740 q 143 789 125 764 q 158 854 161 814 l 121 854 l 121 972 l 213 972 l 213 869 q 186 766 213 804 q 97 706 160 729 l 80 740 m 329 740 q 392 789 374 764 q 407 854 410 814 l 370 854 l 370 972 l 462 972 l 462 869 q 435 766 462 804 q 346 706 409 729 l 329 740 "},"@":{"x_min":74,"x_max":1287,"ha":1361,"o":"m 619 166 q 713 189 667 166 q 792 250 758 212 q 848 335 827 287 q 869 434 869 383 q 855 511 869 476 q 817 572 841 546 q 758 613 792 598 q 685 628 724 628 q 593 607 638 628 q 513 549 548 586 q 456 462 477 512 q 435 354 435 412 q 486 216 435 265 q 619 166 537 166 m 693 -225 q 446 -177 559 -225 q 250 -46 333 -129 q 120 145 166 36 q 74 380 74 255 q 121 616 74 505 q 250 809 168 726 q 443 940 332 891 q 681 989 554 989 q 919 944 809 989 q 1112 824 1030 900 q 1240 648 1194 748 q 1287 438 1287 548 q 1264 285 1287 349 q 1205 180 1241 221 q 1123 120 1169 139 q 1034 101 1078 101 q 912 135 960 101 q 845 230 863 170 q 800 180 824 203 q 747 139 776 156 q 684 111 718 121 q 608 101 650 101 q 513 119 558 101 q 435 169 468 137 q 382 247 401 202 q 363 348 363 292 q 391 487 363 423 q 466 596 419 550 q 570 668 512 642 q 686 695 627 695 q 760 684 727 695 q 819 656 794 674 q 862 615 844 637 q 892 571 880 593 l 912 675 l 978 667 l 927 373 q 915 273 915 299 q 947 182 915 213 q 1040 151 980 151 q 1112 167 1076 151 q 1176 219 1148 184 q 1222 308 1205 253 q 1240 438 1240 363 q 1197 625 1240 534 q 1080 787 1155 716 q 903 901 1005 858 q 681 945 801 945 q 458 900 561 945 q 280 778 355 856 q 163 599 205 701 q 121 380 121 497 q 163 161 121 263 q 281 -16 205 59 q 462 -137 357 -93 q 693 -181 568 -181 q 878 -157 797 -181 q 1040 -86 959 -133 l 1061 -121 q 891 -197 980 -169 q 693 -225 801 -225 "},"ö":{"x_min":80,"x_max":809,"ha":889,"o":"m 283 938 l 379 938 l 379 827 l 283 827 l 283 938 m 510 938 l 606 938 l 606 827 l 510 827 l 510 938 m 445 47 q 561 71 508 47 q 653 136 615 95 q 713 233 691 177 q 735 351 735 288 l 735 354 q 712 474 735 417 q 650 572 690 530 q 557 637 611 613 q 443 661 504 661 q 327 636 380 661 q 235 571 273 612 q 175 474 197 530 q 154 356 154 419 l 154 354 q 176 233 154 290 q 238 135 198 177 q 331 70 277 94 q 445 47 384 47 m 443 -17 q 297 12 363 -17 q 182 92 231 42 q 107 209 134 142 q 80 351 80 276 l 80 354 q 107 495 80 429 q 183 613 134 562 q 299 695 233 665 q 445 725 366 725 q 591 695 525 725 q 706 615 657 665 q 781 498 754 565 q 809 356 809 431 l 809 354 q 781 212 809 278 q 705 94 754 145 q 589 12 655 42 q 443 -17 522 -17 "},"i":{"x_min":131,"x_max":215,"ha":346,"o":"m 139 708 l 207 708 l 207 0 l 139 0 l 139 708 m 131 986 l 215 986 l 215 893 l 131 893 l 131 986 "},"Õ":{"x_min":101,"x_max":1080.703125,"ha":1181,"o":"m 384 1063 q 431 1165 404 1138 q 501 1192 459 1192 q 544 1182 520 1192 q 592 1163 568 1173 q 638 1144 616 1153 q 679 1135 661 1135 q 718 1149 704 1135 q 748 1204 733 1163 l 795 1191 q 748 1089 776 1116 q 679 1063 720 1063 q 636 1072 659 1063 q 588 1091 612 1081 q 541 1110 563 1101 q 501 1120 519 1120 q 461 1105 476 1120 q 431 1050 447 1090 l 384 1063 m 591 48 q 758 82 682 48 q 888 175 833 116 q 974 313 943 234 q 1005 483 1005 392 l 1005 486 q 973 656 1005 576 q 887 795 942 736 q 756 889 832 854 q 589 924 679 924 q 422 889 498 924 q 292 796 347 855 q 206 658 237 737 q 176 488 176 579 l 176 486 q 207 315 176 395 q 293 176 238 235 q 424 82 348 117 q 591 48 501 48 m 589 -17 q 388 23 477 -17 q 234 133 298 64 q 135 292 170 202 q 101 483 101 383 l 101 486 q 136 677 101 586 q 235 837 171 768 q 390 948 299 907 q 591 989 480 989 q 792 948 701 989 q 946 838 882 907 q 1045 679 1010 769 q 1080 488 1080 588 q 1080 486 1081 487 q 1044 294 1080 385 q 945 134 1009 203 q 790 23 881 64 q 589 -17 698 -17 "},"þ":{"x_min":129,"x_max":834,"ha":917,"o":"m 482 48 q 591 68 540 48 q 679 128 641 89 q 738 223 716 167 q 760 351 760 280 l 760 354 q 737 480 760 423 q 677 577 715 537 q 588 638 639 616 q 482 660 537 660 q 374 637 426 660 q 281 575 322 615 q 217 479 241 534 q 193 355 193 423 l 193 352 q 217 228 193 284 q 281 132 241 171 q 374 70 322 92 q 482 48 426 48 m 129 1014 l 197 1014 l 197 550 q 248 616 219 584 q 313 672 277 648 q 392 710 348 695 q 489 725 436 725 q 614 699 553 725 q 725 627 676 674 q 804 511 774 580 q 834 356 834 442 l 834 354 q 804 199 834 267 q 725 82 774 130 q 614 8 676 34 q 489 -17 553 -17 q 391 -3 436 -17 q 311 34 347 10 q 247 88 276 58 q 197 152 219 119 l 197 -222 l 129 -222 l 129 1014 "},"]":{"x_min":81.703125,"x_max":461,"ha":597,"o":"m 81 -128 l 397 -128 l 397 919 l 81 919 l 81 972 l 461 972 l 461 -181 l 81 -181 l 81 -128 "},"m":{"x_min":129,"x_max":1199,"ha":1321,"o":"m 129 708 l 197 708 l 197 581 q 235 635 213 609 q 284 681 256 661 q 348 713 312 701 q 432 725 385 725 q 516 712 478 725 q 584 679 555 700 q 634 630 613 658 q 671 572 656 602 q 711 629 688 601 q 766 678 735 656 q 837 712 797 700 q 927 725 877 725 q 1040 703 989 725 q 1126 643 1090 681 q 1180 550 1161 605 q 1199 429 1199 495 l 1199 0 l 1131 0 l 1131 420 q 1075 598 1131 535 q 921 662 1019 662 q 836 645 877 662 q 764 596 795 628 q 716 518 734 564 q 698 412 698 471 l 698 0 l 630 0 l 630 424 q 574 598 630 535 q 423 662 518 662 q 334 642 376 662 q 262 588 292 623 q 214 507 231 553 q 197 408 197 462 l 197 0 l 129 0 l 129 708 "},"8":{"x_min":76,"x_max":799,"ha":875,"o":"m 437 51 q 557 67 504 51 q 648 112 611 84 q 704 178 685 141 q 724 256 724 215 l 724 259 q 701 343 724 305 q 640 409 679 381 q 549 452 601 437 q 437 468 497 468 q 325 452 377 468 q 234 409 273 437 q 173 343 195 381 q 151 259 151 305 l 151 256 q 170 178 151 215 q 226 112 189 141 q 317 67 263 84 q 437 51 370 51 m 437 529 q 534 543 488 529 q 615 584 580 558 q 669 647 649 611 q 690 729 690 684 l 690 731 q 670 808 690 773 q 617 868 651 843 q 536 907 583 893 q 437 921 490 921 q 338 907 384 921 q 257 868 291 893 q 204 808 223 843 q 185 731 185 773 l 185 729 q 205 647 185 684 q 259 584 225 611 q 340 543 294 558 q 437 529 386 529 m 437 -14 q 294 6 361 -14 q 180 62 228 26 q 103 148 131 98 q 76 259 76 198 l 76 262 q 92 342 76 305 q 137 409 109 379 q 206 463 166 440 q 291 502 245 487 q 222 538 255 516 q 165 587 190 559 q 125 650 140 615 q 110 729 110 686 l 110 731 q 137 835 110 788 q 211 915 165 881 q 316 967 257 948 q 437 986 375 986 q 558 967 499 986 q 663 915 617 948 q 737 835 709 881 q 765 731 765 788 l 765 729 q 749 650 765 686 q 709 587 734 615 q 652 538 684 559 q 583 502 619 516 q 669 463 629 487 q 737 409 708 440 q 782 342 765 379 q 799 262 799 305 l 799 259 q 771 148 799 198 q 694 62 743 98 q 580 6 646 26 q 437 -14 513 -14 "},"ž":{"x_min":80.5625,"x_max":693.109375,"ha":770,"o":"m 230 996 l 295 996 l 398 901 l 501 996 l 563 996 l 425 826 l 369 826 l 230 996 m 80 38 l 591 647 l 100 647 l 100 708 l 693 708 l 693 669 l 181 61 l 693 61 l 693 0 l 80 0 l 80 38 "},"R":{"x_min":144,"x_max":935.96875,"ha":1004,"o":"m 544 468 q 657 483 605 468 q 747 526 709 498 q 806 596 784 555 q 828 689 828 637 l 828 692 q 754 848 828 791 q 548 905 681 905 l 216 905 l 216 468 l 544 468 m 144 972 l 552 972 q 712 946 643 972 q 827 876 782 920 q 880 795 861 841 q 900 695 900 748 l 900 693 q 878 584 900 631 q 818 501 856 536 q 728 445 780 466 q 615 415 676 423 l 935 0 l 844 0 l 534 403 l 531 403 l 216 403 l 216 0 l 144 0 l 144 972 "},"á":{"x_min":71,"x_max":682,"ha":797,"o":"m 477 1011 l 562 969 l 414 826 l 355 826 l 477 1011 m 348 47 q 450 62 402 47 q 536 107 499 78 q 594 176 573 136 q 616 265 616 216 l 616 346 q 511 367 571 357 q 376 378 452 378 q 203 332 263 378 q 143 212 143 287 l 143 209 q 159 140 143 170 q 204 90 176 110 q 270 58 233 69 q 348 47 308 47 m 344 -17 q 245 -3 294 -17 q 158 38 197 10 q 95 108 119 66 q 71 205 71 149 l 71 208 q 93 306 71 263 q 157 379 116 350 q 254 423 197 408 q 380 439 311 439 q 509 430 455 439 q 615 408 563 422 l 615 439 q 553 601 615 547 q 381 656 491 656 q 262 640 316 656 q 159 599 208 624 l 135 658 q 252 703 193 686 q 385 720 312 720 q 609 642 531 720 q 682 442 682 569 l 682 0 l 615 0 l 615 117 q 571 68 597 92 q 512 25 545 44 q 436 -5 479 6 q 344 -17 394 -17 "},"o":{"x_min":81,"x_max":808,"ha":889,"o":"m 445 47 q 561 71 508 47 q 652 136 614 95 q 712 233 691 177 q 734 351 734 288 l 734 354 q 711 474 734 417 q 650 572 689 530 q 557 637 610 613 q 443 661 504 661 q 327 636 380 661 q 236 571 274 612 q 176 474 197 530 q 155 356 155 419 l 155 354 q 177 233 155 290 q 238 135 199 177 q 331 70 278 94 q 445 47 384 47 m 443 -17 q 298 12 364 -17 q 183 92 232 42 q 108 209 135 142 q 81 351 81 276 l 81 354 q 108 495 81 429 q 184 613 135 562 q 300 695 233 665 q 445 725 366 725 q 590 695 524 725 q 705 615 656 665 q 780 498 753 565 q 808 356 808 431 l 808 354 q 780 212 808 278 q 704 94 753 145 q 588 12 655 42 q 443 -17 522 -17 "},"5":{"x_min":78.78125,"x_max":758,"ha":840,"o":"m 419 -17 q 230 28 319 -17 q 78 139 142 74 l 130 191 q 270 86 196 124 q 421 48 344 48 q 528 66 480 48 q 610 119 576 85 q 663 196 644 152 q 683 293 683 241 l 683 295 q 663 388 683 345 q 608 461 644 430 q 523 509 573 492 q 416 527 474 527 q 295 508 348 527 q 196 465 242 490 l 141 501 l 169 972 l 714 972 l 714 903 l 232 903 l 209 539 q 306 577 256 562 q 424 592 356 592 q 555 570 495 592 q 661 510 616 548 q 732 418 706 472 q 758 298 758 363 l 758 295 q 732 169 758 226 q 661 70 706 112 q 554 5 616 28 q 419 -17 492 -17 "},"õ":{"x_min":81,"x_max":808,"ha":889,"o":"m 238 827 q 286 929 258 902 q 355 956 313 956 q 398 946 375 956 q 446 927 422 937 q 493 908 470 917 q 533 899 515 899 q 572 913 558 899 q 602 968 587 927 l 650 955 q 602 853 630 880 q 533 827 575 827 q 490 836 513 827 q 442 855 466 845 q 395 874 418 865 q 355 884 373 884 q 315 869 330 884 q 286 814 301 854 l 238 827 m 445 47 q 561 71 508 47 q 652 136 614 95 q 712 233 691 177 q 734 351 734 288 l 734 354 q 711 474 734 417 q 650 572 689 530 q 557 637 610 613 q 443 661 504 661 q 327 636 380 661 q 236 571 274 612 q 176 474 197 530 q 155 356 155 419 l 155 354 q 177 233 155 290 q 238 135 199 177 q 331 70 278 94 q 445 47 384 47 m 443 -17 q 298 12 364 -17 q 183 92 232 42 q 108 209 135 142 q 81 351 81 276 l 81 354 q 108 495 81 429 q 184 613 135 562 q 300 695 233 665 q 445 725 366 725 q 590 695 524 725 q 705 615 656 665 q 780 498 753 565 q 808 356 808 431 l 808 354 q 780 212 808 278 q 704 94 753 145 q 588 12 655 42 q 443 -17 522 -17 "},"7":{"x_min":94.453125,"x_max":738.953125,"ha":815,"o":"m 658 903 l 94 903 l 94 972 l 738 972 l 738 919 l 295 0 l 216 0 l 658 903 "},"K":{"x_min":145,"x_max":953.171875,"ha":993,"o":"m 145 972 l 217 972 l 217 333 l 836 972 l 935 972 l 510 542 l 953 0 l 858 0 l 458 491 l 217 247 l 217 0 l 145 0 l 145 972 "},",":{"x_min":73.71875,"x_max":206,"ha":319,"o":"m 73 -114 q 136 -65 118 -90 q 151 0 154 -40 l 114 0 l 114 118 l 206 118 l 206 15 q 179 -87 206 -50 q 90 -149 153 -125 l 73 -114 "},"d":{"x_min":83,"x_max":788,"ha":917,"o":"m 434 48 q 542 70 490 48 q 635 132 594 92 q 699 228 675 173 q 724 352 724 284 l 724 355 q 699 479 724 423 q 635 575 675 536 q 542 637 594 615 q 434 660 490 660 q 325 639 376 660 q 237 579 275 618 q 178 484 200 540 q 157 356 157 427 l 157 354 q 179 227 157 284 q 239 130 201 170 q 328 69 277 91 q 434 48 379 48 m 427 -17 q 302 8 363 -17 q 191 80 240 33 q 112 196 142 127 q 83 351 83 265 l 83 354 q 112 508 83 440 q 191 625 142 577 q 302 699 240 673 q 427 725 363 725 q 525 711 480 725 q 605 673 569 697 q 669 619 640 649 q 720 555 697 588 l 720 1014 l 788 1014 l 788 0 l 720 0 l 719 158 q 667 91 696 123 q 603 35 639 59 q 524 -2 568 12 q 427 -17 480 -17 "},"¨":{"x_min":186,"x_max":509,"ha":695,"o":"m 186 938 l 282 938 l 282 827 l 186 827 l 186 938 m 413 938 l 509 938 l 509 827 l 413 827 l 413 938 "},"Ô":{"x_min":101,"x_max":1080.703125,"ha":1181,"o":"m 562 1232 l 618 1232 l 757 1063 l 692 1063 l 589 1157 l 486 1063 l 423 1062 l 562 1232 m 591 48 q 758 82 682 48 q 888 175 833 116 q 974 313 943 234 q 1005 483 1005 392 l 1005 486 q 973 656 1005 576 q 887 795 942 736 q 756 889 832 854 q 589 924 679 924 q 422 889 498 924 q 292 796 347 855 q 206 658 237 737 q 176 488 176 579 l 176 486 q 207 315 176 395 q 293 176 238 235 q 424 82 348 117 q 591 48 501 48 m 589 -17 q 388 23 477 -17 q 234 133 298 64 q 135 292 170 202 q 101 483 101 383 l 101 486 q 136 677 101 586 q 235 837 171 768 q 390 948 299 907 q 591 989 480 989 q 792 948 701 989 q 946 838 882 907 q 1045 679 1010 769 q 1080 488 1080 588 q 1080 486 1081 487 q 1044 294 1080 385 q 945 134 1009 203 q 790 23 881 64 q 589 -17 698 -17 "},"E":{"x_min":145,"x_max":843.4375,"ha":931,"o":"m 145 972 l 836 972 l 836 905 l 217 905 l 217 524 l 773 524 l 773 457 l 217 457 l 217 67 l 843 67 l 843 0 l 145 0 l 145 972 "},"Y":{"x_min":44.3125,"x_max":949.703125,"ha":995,"o":"m 461 384 l 44 972 l 134 972 l 498 449 l 863 972 l 949 972 l 533 386 l 533 0 l 461 0 l 461 384 "},"\"":{"x_min":94.453125,"x_max":483.375,"ha":569,"o":"m 143 972 l 233 972 l 233 965 l 134 620 l 94 620 l 143 972 m 393 972 l 483 972 l 483 965 l 384 620 l 344 620 l 393 972 "},"‹":{"x_min":70.84375,"x_max":344.46875,"ha":432,"o":"m 70 348 l 70 359 l 293 650 l 344 616 l 154 355 l 344 91 l 293 58 l 70 348 "},"˙":{"x_min":297,"x_max":397,"ha":695,"o":"m 297 939 l 397 939 l 397 826 l 297 826 l 297 939 "},"ê":{"x_min":81,"x_max":742,"ha":811,"o":"m 385 996 l 440 996 l 579 826 l 514 826 l 411 920 l 308 826 l 246 826 l 385 996 m 668 387 q 646 490 663 441 q 597 577 629 539 q 520 639 566 616 q 413 662 475 662 q 315 641 361 662 q 235 583 269 620 q 179 496 201 546 q 153 387 157 445 l 668 387 m 428 -17 q 295 9 358 -17 q 184 84 232 35 q 108 201 136 133 q 81 352 81 269 l 81 355 q 106 499 81 431 q 177 616 132 566 q 283 695 222 666 q 417 725 344 725 q 551 696 492 725 q 653 617 611 668 q 719 500 696 567 q 742 353 742 433 q 742 339 742 344 q 741 326 742 334 l 153 326 q 182 208 157 259 q 244 120 207 156 q 330 65 282 84 q 430 47 378 47 q 571 78 514 47 q 674 158 629 110 l 721 116 q 598 20 667 58 q 428 -17 529 -17 "},"Ï":{"x_min":30,"x_max":353,"ha":381,"o":"m 30 1174 l 126 1174 l 126 1063 l 30 1063 l 30 1174 m 257 1174 l 353 1174 l 353 1063 l 257 1063 l 257 1174 m 154 972 l 226 972 l 226 0 l 154 0 l 154 972 "},"„":{"x_min":73.71875,"x_max":455,"ha":569,"o":"m 73 -114 q 136 -65 118 -90 q 151 0 154 -40 l 114 0 l 114 118 l 206 118 l 206 15 q 179 -87 206 -50 q 90 -149 153 -125 l 73 -114 m 322 -114 q 385 -65 367 -90 q 400 0 403 -40 l 363 0 l 363 118 l 455 118 l 455 15 q 428 -87 455 -50 q 339 -149 402 -125 l 322 -114 "},"Â":{"x_min":61.109375,"x_max":1036.1875,"ha":1097,"o":"m 520 1225 l 576 1225 l 715 1055 l 650 1055 l 547 1150 l 444 1055 l 381 1055 l 520 1225 m 802 337 l 547 900 l 290 337 l 802 337 m 513 979 l 583 979 l 1036 0 l 957 0 l 833 272 l 259 272 l 136 0 l 61 0 l 513 979 "},"Í":{"x_min":154,"x_max":370.640625,"ha":381,"o":"m 285 1247 l 370 1205 l 222 1062 l 163 1062 l 285 1247 m 154 972 l 226 972 l 226 0 l 154 0 l 154 972 "},"´":{"x_min":269.46875,"x_max":476.421875,"ha":695,"o":"m 391 1011 l 476 969 l 327 826 l 269 826 l 391 1011 "},"ì":{"x_min":-6.890625,"x_max":207,"ha":346,"o":"m -6 969 l 77 1011 l 200 826 l 141 826 l -6 969 m 139 708 l 207 708 l 207 0 l 139 0 l 139 708 "},"±":{"x_min":62.609375,"x_max":746,"ha":833,"o":"m 420 -17 q 211 33 302 -17 q 62 161 120 84 l 120 204 q 250 90 175 132 q 423 48 325 48 q 521 62 476 48 q 600 104 566 77 q 652 169 633 131 q 671 253 671 207 l 671 256 q 596 404 671 350 q 383 458 521 458 l 286 458 l 286 522 l 385 522 q 488 535 440 522 q 569 575 535 549 q 624 638 604 601 q 645 725 645 676 l 645 727 q 628 805 645 769 q 581 868 611 841 q 507 909 550 894 q 411 924 464 924 q 258 885 322 924 q 140 775 193 847 l 85 808 q 221 939 140 890 q 414 989 301 989 q 536 969 481 989 q 633 915 592 950 q 697 833 674 880 q 720 730 720 786 l 720 727 q 704 639 720 677 q 661 573 688 601 q 601 526 635 545 q 535 496 568 508 q 618 462 579 484 q 685 412 657 441 q 730 344 714 383 q 746 258 746 305 l 746 255 q 721 148 746 198 q 654 62 697 99 q 551 4 611 26 q 420 -17 491 -17 "},"Ú":{"x_min":129,"x_max":927,"ha":1056,"o":"m 615 1240 l 700 1198 l 551 1055 l 493 1055 l 615 1240 m 528 -15 q 367 12 440 -15 q 240 92 294 39 q 158 223 187 146 q 129 404 129 301 l 129 972 l 201 972 l 201 411 q 287 143 201 237 q 530 50 374 50 q 664 72 604 50 q 766 138 724 94 q 832 249 809 183 q 855 404 855 316 l 855 972 l 927 972 l 927 412 q 897 228 927 308 q 815 94 868 148 q 689 12 762 40 q 528 -15 616 -15 "},"|":{"x_min":168,"x_max":229,"ha":397,"o":"m 168 1108 l 229 1108 l 229 -178 l 168 -178 l 168 1108 "},"§":{"x_min":90,"x_max":787,"ha":878,"o":"m 535 351 q 609 360 576 351 q 666 384 642 369 q 702 419 689 400 q 715 459 715 438 l 715 462 q 705 498 715 480 q 671 533 695 516 q 604 566 646 550 q 496 598 562 581 q 408 616 446 611 q 341 620 370 620 q 267 611 300 620 q 210 587 234 602 q 174 552 187 572 q 162 512 162 533 l 162 509 q 171 472 162 490 q 205 438 181 455 q 272 406 230 422 q 380 373 314 390 q 467 356 428 361 q 535 351 506 351 m 456 -14 q 281 22 363 -14 q 141 117 199 59 l 194 167 q 311 86 243 119 q 463 54 380 54 q 586 85 547 54 q 625 160 625 116 l 625 163 q 611 205 625 185 q 568 242 598 224 q 490 276 538 259 q 370 310 441 294 q 239 349 292 329 q 152 392 185 369 q 104 442 119 415 q 90 504 90 470 l 90 506 q 145 611 90 569 q 295 663 201 652 q 209 724 241 687 q 177 809 177 761 l 177 812 q 243 938 177 891 q 421 986 309 986 q 596 949 514 986 q 736 854 678 912 l 683 804 q 566 885 634 852 q 414 918 497 918 q 291 886 330 918 q 253 811 253 855 l 253 808 q 266 766 253 786 q 309 729 279 747 q 387 694 339 711 q 506 661 436 677 q 637 622 584 641 q 724 579 691 602 q 772 529 757 556 q 787 467 787 501 l 787 465 q 731 361 787 402 q 581 308 675 319 q 668 247 635 284 q 701 162 701 211 l 701 159 q 634 33 701 80 q 456 -14 568 -14 "},"Ý":{"x_min":44.3125,"x_max":949.703125,"ha":995,"o":"m 594 1240 l 679 1198 l 530 1055 l 472 1055 l 594 1240 m 461 384 l 44 972 l 134 972 l 498 449 l 863 972 l 949 972 l 533 386 l 533 0 l 461 0 l 461 384 "},"b":{"x_min":129,"x_max":834,"ha":917,"o":"m 482 48 q 591 68 540 48 q 679 128 641 89 q 738 223 716 167 q 760 351 760 280 l 760 354 q 737 480 760 423 q 677 577 715 537 q 588 638 639 616 q 482 660 537 660 q 374 637 426 660 q 281 575 322 615 q 217 479 241 534 q 193 355 193 423 l 193 352 q 217 228 193 284 q 281 132 241 171 q 374 70 322 92 q 482 48 426 48 m 489 -17 q 391 -3 436 -17 q 311 34 347 10 q 247 88 276 58 q 197 152 219 119 l 197 0 l 129 0 l 129 1014 l 197 1014 l 197 549 q 248 616 219 584 q 313 672 277 648 q 392 710 348 695 q 489 725 436 725 q 614 699 553 725 q 725 627 676 674 q 804 511 774 580 q 834 356 834 442 l 834 354 q 804 199 834 267 q 725 82 774 130 q 614 8 676 34 q 489 -17 553 -17 "},"q":{"x_min":83,"x_max":788,"ha":917,"o":"m 434 48 q 542 70 490 48 q 635 132 594 92 q 699 228 675 173 q 724 352 724 284 l 724 355 q 699 479 724 423 q 635 575 675 536 q 542 637 594 615 q 434 660 490 660 q 325 639 376 660 q 237 579 275 618 q 178 484 200 540 q 157 356 157 427 l 157 354 q 179 227 157 284 q 239 130 201 170 q 328 69 277 91 q 434 48 379 48 m 720 158 q 667 91 696 123 q 603 35 639 59 q 524 -2 568 12 q 427 -17 480 -17 q 302 8 363 -17 q 191 80 240 33 q 112 196 142 127 q 83 351 83 265 l 83 354 q 112 508 83 440 q 191 625 142 577 q 302 699 240 673 q 427 725 363 725 q 525 711 480 725 q 605 673 569 697 q 669 619 640 650 q 720 555 697 588 l 720 708 l 788 708 l 788 -222 l 720 -222 l 720 158 "},"Ω":{"x_min":68.21875,"x_max":990.640625,"ha":1006,"o":"m 171 645 l 68 645 l 68 708 l 171 708 l 171 777 q 233 962 171 899 q 381 1018 288 1018 q 439 1013 413 1018 q 487 1001 464 1009 l 487 937 q 433 950 457 946 q 382 955 409 955 q 239 776 239 955 l 239 708 l 486 708 l 486 645 l 239 645 l 239 0 l 171 0 l 171 645 m 674 645 l 571 645 l 571 708 l 674 708 l 674 777 q 736 962 674 899 q 885 1018 792 1018 q 942 1013 917 1018 q 990 1001 967 1009 l 990 937 q 936 950 960 946 q 885 955 912 955 q 742 776 742 955 l 742 708 l 989 708 l 989 645 l 742 645 l 742 0 l 674 0 l 674 645 "},"Ö":{"x_min":101,"x_max":1079.703125,"ha":1181,"o":"m 429 1174 l 525 1174 l 525 1063 l 429 1063 l 429 1174 m 656 1174 l 752 1174 l 752 1063 l 656 1063 l 656 1174 m 591 48 q 757 82 681 48 q 888 175 833 116 q 973 313 942 234 q 1004 483 1004 392 l 1004 486 q 972 656 1004 576 q 886 795 941 736 q 755 889 831 854 q 588 924 678 924 q 422 889 498 924 q 292 796 346 855 q 206 658 237 737 q 176 488 176 579 l 176 486 q 207 315 176 395 q 293 176 238 235 q 424 82 348 117 q 591 48 501 48 m 588 -17 q 387 23 477 -17 q 234 133 298 64 q 135 292 170 202 q 101 483 101 383 l 101 486 q 136 677 101 586 q 235 837 171 768 q 389 948 299 907 q 591 989 480 989 q 791 948 701 989 q 945 838 881 907 q 1044 679 1009 769 q 1079 488 1079 588 q 1079 486 1080 487 q 1043 294 1079 385 q 944 134 1008 203 q 789 23 880 64 q 588 -17 698 -17 "},"ﬂ":{"x_min":68.21875,"x_max":710,"ha":849,"o":"m 642 1014 l 710 1014 l 710 0 l 642 0 l 642 1014 m 171 645 l 68 645 l 68 708 l 171 708 l 171 777 q 233 962 171 899 q 381 1018 288 1018 q 439 1013 413 1018 q 487 1001 464 1009 l 487 937 q 433 950 457 946 q 382 955 409 955 q 239 776 239 955 l 239 708 l 486 708 l 486 645 l 239 645 l 239 0 l 171 0 l 171 645 "},"z":{"x_min":80.5625,"x_max":693.109375,"ha":770,"o":"m 80 38 l 591 647 l 100 647 l 100 708 l 693 708 l 693 669 l 181 61 l 693 61 l 693 0 l 80 0 l 80 38 "},"™":{"x_min":35.703125,"x_max":897,"ha":958,"o":"m 176 925 l 35 925 l 35 972 l 365 972 l 365 925 l 225 925 l 225 544 l 176 544 l 176 925 m 462 972 l 513 972 l 680 717 l 846 972 l 897 972 l 897 544 l 848 544 l 848 885 l 682 638 l 676 638 l 511 885 l 511 544 l 462 544 l 462 972 "},"ã":{"x_min":71,"x_max":682,"ha":797,"o":"m 196 827 q 244 929 216 902 q 313 956 271 956 q 356 946 332 956 q 404 927 380 937 q 451 908 428 917 q 491 899 473 899 q 530 913 516 899 q 560 968 545 927 l 608 955 q 560 853 588 880 q 491 827 533 827 q 448 836 471 827 q 400 855 424 845 q 353 874 376 865 q 313 884 331 884 q 273 869 288 884 q 244 814 259 854 l 196 827 m 348 47 q 450 62 402 47 q 536 107 499 78 q 594 176 573 136 q 616 265 616 216 l 616 346 q 511 367 571 357 q 376 378 452 378 q 203 332 263 378 q 143 212 143 287 l 143 209 q 159 140 143 170 q 204 90 176 110 q 270 58 233 69 q 348 47 308 47 m 344 -17 q 245 -3 294 -17 q 158 38 197 10 q 95 108 119 66 q 71 205 71 149 l 71 208 q 93 306 71 263 q 157 379 116 350 q 254 423 197 408 q 380 439 311 439 q 509 430 455 439 q 615 408 563 422 l 615 439 q 553 601 615 547 q 381 656 491 656 q 262 640 316 656 q 159 599 208 624 l 135 658 q 252 703 193 686 q 385 720 312 720 q 609 642 531 720 q 682 442 682 569 l 682 0 l 615 0 l 615 117 q 571 68 597 92 q 512 25 545 44 q 436 -5 479 6 q 344 -17 394 -17 "},"æ":{"x_min":71,"x_max":1256,"ha":1325,"o":"m 341 47 q 503 89 433 47 q 625 195 574 131 q 604 267 611 230 q 595 346 596 304 q 494 367 550 357 q 369 377 437 377 q 201 331 259 377 q 143 212 143 286 l 143 209 q 158 140 143 170 q 202 89 174 110 q 265 58 229 69 q 341 47 301 47 m 1182 387 q 1160 490 1177 441 q 1111 577 1143 539 q 1034 639 1080 616 q 927 662 989 662 q 829 641 875 662 q 749 583 783 620 q 693 496 715 546 q 667 387 671 445 l 1182 387 m 337 -17 q 241 -3 289 -17 q 155 38 193 10 q 94 107 118 66 q 71 204 71 149 l 71 207 q 93 306 71 263 q 155 378 115 349 q 251 422 196 407 q 373 438 307 438 q 493 429 443 438 q 596 407 544 421 l 596 438 q 537 600 596 546 q 372 655 479 655 q 259 639 309 655 q 159 598 208 623 l 134 657 q 250 703 194 686 q 376 720 305 720 q 551 675 482 720 q 644 541 621 630 q 761 674 686 624 q 930 725 836 725 q 1065 696 1005 725 q 1167 617 1125 668 q 1233 500 1210 567 q 1256 353 1256 433 q 1256 339 1256 344 q 1254 326 1256 334 l 667 326 q 696 208 671 259 q 758 120 721 156 q 844 65 796 84 q 944 47 892 47 q 1085 78 1028 47 q 1187 158 1143 110 l 1235 116 q 1112 20 1180 58 q 942 -17 1043 -17 q 778 23 854 -17 q 655 138 703 64 q 521 28 600 74 q 337 -17 443 -17 "},"®":{"x_min":73,"x_max":1079,"ha":1153,"o":"m 601 506 q 697 530 659 506 q 736 602 736 554 l 736 605 q 701 672 736 647 q 608 697 667 697 l 443 697 l 443 506 l 601 506 m 383 754 l 611 754 q 697 740 658 754 q 760 702 736 726 q 787 661 776 686 q 799 608 799 637 l 799 605 q 760 507 799 543 q 659 460 722 471 l 828 245 l 751 245 l 590 450 l 587 450 l 443 450 l 443 245 l 383 245 l 383 754 m 574 22 q 757 58 673 22 q 904 158 842 95 q 1001 306 966 222 q 1037 486 1037 390 l 1037 488 q 1002 668 1037 584 q 905 815 967 752 q 759 913 843 877 q 577 950 675 950 q 394 913 478 950 q 247 813 309 876 q 150 665 185 749 q 115 486 115 581 l 115 483 q 149 303 115 387 q 246 156 184 219 q 392 58 308 94 q 574 22 476 22 m 574 -17 q 377 22 469 -17 q 218 130 285 62 q 111 289 150 198 q 73 483 73 380 l 73 486 q 111 679 73 588 q 218 839 150 770 q 379 948 286 908 q 577 989 471 989 q 774 949 682 989 q 933 841 866 909 q 1040 682 1001 773 q 1079 488 1079 591 l 1079 486 q 1040 292 1079 383 q 933 132 1001 201 q 772 23 865 63 q 574 -17 680 -17 "},"É":{"x_min":145,"x_max":843.4375,"ha":931,"o":"m 551 1247 l 636 1205 l 487 1062 l 429 1062 l 551 1247 m 145 972 l 836 972 l 836 905 l 217 905 l 217 524 l 773 524 l 773 457 l 217 457 l 217 67 l 843 67 l 843 0 l 145 0 l 145 972 "},"~":{"x_min":113.890625,"x_max":525.046875,"ha":639,"o":"m 113 348 q 161 450 133 423 q 230 478 188 478 q 273 468 250 478 q 321 449 297 459 q 368 430 345 439 q 408 421 390 421 q 447 435 433 421 q 477 490 462 449 l 525 477 q 477 375 505 402 q 408 349 450 349 q 365 358 388 349 q 317 377 341 367 q 270 396 293 387 q 230 406 248 406 q 190 391 205 406 q 161 336 176 376 l 113 348 "},"¡":{"x_min":129.171875,"x_max":220.84375,"ha":350,"o":"m 134 97 l 155 718 l 194 718 l 215 97 l 215 0 l 134 0 l 134 97 m 129 972 l 220 972 l 220 854 l 129 854 l 129 972 "},"[":{"x_min":136,"x_max":515.296875,"ha":597,"o":"m 136 972 l 515 972 l 515 919 l 200 919 l 200 -128 l 515 -128 l 515 -181 l 136 -181 l 136 972 "},"L":{"x_min":145,"x_max":787.875,"ha":860,"o":"m 145 972 l 217 972 l 217 67 l 787 67 l 787 0 l 145 0 l 145 972 "},";":{"x_min":80.71875,"x_max":213,"ha":333,"o":"m 80 -114 q 143 -65 125 -90 q 158 0 161 -40 l 121 0 l 121 118 l 213 118 l 213 15 q 186 -87 213 -50 q 97 -149 160 -125 l 80 -114 m 121 708 l 213 708 l 213 590 l 121 590 l 121 708 "}," ":{"x_min":0,"x_max":0,"ha":417},"%":{"x_min":77,"x_max":1068,"ha":1145,"o":"m 855 49 q 911 63 886 49 q 956 103 937 78 q 985 161 975 128 q 996 234 996 195 l 996 237 q 984 312 996 277 q 953 371 973 347 q 907 411 933 396 q 852 426 881 426 q 796 411 821 426 q 751 371 770 396 q 722 311 732 345 q 712 240 712 277 l 712 237 q 723 161 712 195 q 754 101 734 126 q 800 62 774 76 q 855 49 826 49 m 291 546 q 348 560 322 546 q 392 600 373 575 q 421 658 411 625 q 432 731 432 692 l 432 734 q 420 809 432 774 q 389 868 409 844 q 343 908 369 893 q 289 923 318 923 q 232 908 258 923 q 188 868 207 893 q 159 808 169 842 q 149 737 149 774 l 149 734 q 160 658 149 692 q 191 598 171 623 q 237 559 211 573 q 291 546 262 546 m 852 -11 q 765 9 803 -11 q 698 63 726 29 q 655 141 670 97 q 640 234 640 186 l 640 237 q 655 331 640 286 q 699 410 670 376 q 767 465 727 444 q 855 486 806 486 q 942 465 902 486 q 1009 411 981 445 q 1052 331 1037 376 q 1068 240 1068 287 l 1068 237 q 1052 143 1068 188 q 1008 63 1037 98 q 940 9 980 29 q 852 -11 901 -11 m 891 972 l 966 971 l 253 0 l 178 0 l 891 972 m 289 486 q 201 506 240 486 q 135 560 162 526 q 92 638 107 594 q 77 731 77 683 l 77 734 q 92 828 77 783 q 135 907 107 873 q 203 962 164 941 q 291 983 243 983 q 378 962 339 983 q 445 908 418 942 q 488 828 473 873 q 504 737 504 784 l 504 734 q 488 640 504 685 q 445 560 473 595 q 377 506 416 526 q 289 486 337 486 "},"P":{"x_min":144,"x_max":859,"ha":928,"o":"m 483 429 q 607 445 551 429 q 702 493 663 462 q 764 569 742 524 q 787 667 787 613 l 787 670 q 765 772 787 728 q 704 845 743 816 q 611 889 665 874 q 491 905 557 905 l 216 905 l 216 429 l 483 429 m 144 972 l 497 972 q 644 951 578 972 q 758 893 710 931 q 832 800 806 855 q 859 674 859 745 l 859 671 q 828 537 859 595 q 745 439 797 478 q 624 381 693 400 q 479 362 555 362 l 216 362 l 216 0 l 144 0 l 144 972 "},"À":{"x_min":61.109375,"x_max":1036.1875,"ha":1097,"o":"m 365 1205 l 450 1247 l 572 1062 l 513 1062 l 365 1205 m 802 337 l 547 899 l 290 337 l 802 337 m 513 979 l 583 979 l 1036 0 l 957 0 l 833 272 l 259 272 l 136 0 l 61 0 l 513 979 "},"_":{"x_min":-2.78125,"x_max":836.171875,"ha":833,"o":"m -2 -161 l 836 -161 l 836 -222 l -2 -222 l -2 -161 "},"ñ":{"x_min":129,"x_max":736,"ha":851,"o":"m 226 827 q 273 929 245 902 q 343 956 301 956 q 386 946 362 956 q 434 927 409 937 q 480 908 458 917 q 520 899 502 899 q 560 913 545 899 q 590 968 575 927 l 637 955 q 590 853 618 880 q 520 827 562 827 q 477 836 501 827 q 429 855 454 845 q 383 874 405 865 q 343 884 361 884 q 303 869 318 884 q 273 814 288 854 l 226 827 m 129 708 l 197 708 l 197 576 q 294 681 233 638 q 452 725 355 725 q 572 703 519 725 q 661 643 624 681 q 717 550 698 604 q 736 433 736 497 l 736 0 l 668 0 l 668 420 q 609 596 668 530 q 442 662 551 662 q 345 643 390 662 q 267 591 301 624 q 215 511 234 557 q 197 409 197 464 l 197 0 l 129 0 l 129 708 "},"+":{"x_min":108.59375,"x_max":780.421875,"ha":889,"o":"m 410 455 l 108 455 l 108 522 l 410 522 l 410 821 l 479 821 l 479 522 l 780 522 l 780 455 l 479 455 l 479 157 l 410 157 l 410 455 "},"‚":{"x_min":73.71875,"x_max":206,"ha":319,"o":"m 73 -114 q 136 -65 118 -90 q 151 0 154 -40 l 114 0 l 114 118 l 206 118 l 206 15 q 179 -87 206 -50 q 90 -149 153 -125 l 73 -114 "},"Æ":{"x_min":27.609375,"x_max":1363.609375,"ha":1452,"o":"m 686 337 l 686 907 l 649 907 l 308 337 l 686 337 m 616 972 l 1356 972 l 1356 905 l 758 905 l 758 524 l 1294 524 l 1294 457 l 758 457 l 758 67 l 1363 67 l 1363 0 l 686 0 l 686 272 l 269 272 l 105 0 l 27 0 l 616 972 "},"Ë":{"x_min":145,"x_max":843.4375,"ha":931,"o":"m 324 1174 l 420 1174 l 420 1063 l 324 1063 l 324 1174 m 550 1174 l 646 1174 l 646 1063 l 550 1063 l 550 1174 m 145 972 l 836 972 l 836 905 l 217 905 l 217 524 l 773 524 l 773 457 l 217 457 l 217 67 l 843 67 l 843 0 l 145 0 l 145 972 "},"'":{"x_min":94.453125,"x_max":233.359375,"ha":319,"o":"m 143 972 l 233 972 l 233 965 l 134 620 l 94 620 l 143 972 "},"Š":{"x_min":81.78125,"x_max":796,"ha":889,"o":"m 287 1232 l 352 1232 l 455 1137 l 558 1232 l 621 1232 l 482 1062 l 426 1062 l 287 1232 m 473 -14 q 263 24 356 -14 q 81 141 169 63 l 129 195 q 208 130 169 157 q 290 86 248 103 q 377 60 331 69 q 477 51 423 51 q 578 65 532 51 q 655 105 623 80 q 705 167 687 131 q 724 244 724 202 l 724 246 q 712 316 724 285 q 669 371 700 346 q 585 417 637 396 q 448 453 532 437 q 298 496 361 471 q 196 553 236 520 q 139 628 157 585 q 121 727 121 672 l 121 730 q 144 831 121 784 q 209 912 168 877 q 308 966 251 947 q 433 986 365 986 q 616 956 539 986 q 766 868 693 927 l 721 811 q 581 896 651 871 q 430 921 511 921 q 332 906 376 921 q 257 866 288 891 q 209 808 226 841 q 193 737 193 775 l 193 734 q 204 664 193 695 q 247 607 216 633 q 334 561 279 582 q 476 522 390 540 q 720 424 645 487 q 796 254 796 361 l 796 251 q 771 143 796 193 q 704 59 747 94 q 603 5 662 24 q 473 -14 544 -14 "},"ª":{"x_min":86,"x_max":436,"ha":542,"o":"m 244 621 q 295 628 271 621 q 337 650 319 636 q 366 684 355 664 q 378 728 378 704 l 378 765 q 326 776 354 772 q 259 781 298 781 q 176 758 207 781 q 146 701 146 736 l 146 698 q 175 641 146 661 q 244 621 204 621 m 86 463 l 436 463 l 436 407 l 86 407 l 86 463 m 241 571 q 186 578 213 571 q 137 602 159 586 q 103 641 116 618 q 90 696 90 664 l 90 698 q 138 794 90 761 q 262 828 186 828 q 327 823 300 828 q 378 812 354 819 l 378 819 q 346 899 378 872 q 262 926 315 926 q 200 916 229 926 q 140 892 172 907 l 121 939 q 191 966 158 956 q 265 976 224 976 q 390 931 345 976 q 429 820 429 892 l 429 579 l 378 579 l 377 635 q 320 588 354 605 q 241 571 285 571 "},"Œ":{"x_min":101,"x_max":1512.609375,"ha":1600,"o":"m 835 67 l 835 905 l 618 905 q 434 872 516 905 q 295 783 352 839 q 207 651 238 727 q 176 488 176 576 l 176 486 q 207 323 176 399 q 295 190 238 247 q 434 100 352 133 q 618 67 516 67 l 835 67 m 617 0 q 408 36 502 0 q 244 138 313 73 q 138 292 176 204 q 101 483 101 380 l 101 486 q 138 677 101 588 q 244 831 176 766 q 408 934 313 897 q 617 972 502 972 l 1505 972 l 1505 905 l 907 905 l 907 524 l 1443 524 l 1443 457 l 907 457 l 907 67 l 1512 67 l 1512 0 l 617 0 "},"˛":{"x_min":260,"x_max":494.90625,"ha":695,"o":"m 494 -228 q 317 -188 375 -232 q 260 -79 260 -144 q 265 -29 260 -52 q 279 14 271 -5 l 339 14 q 331 -63 331 -23 q 494 -185 331 -176 l 494 -228 "},"ð":{"x_min":81,"x_max":789,"ha":872,"o":"m 436 47 q 550 70 498 47 q 638 133 601 94 q 694 226 674 173 q 715 336 715 279 l 715 338 q 692 444 715 394 q 631 532 670 494 q 538 591 591 569 q 422 614 484 614 q 310 592 360 614 q 227 533 261 570 q 173 445 192 495 q 155 336 155 394 l 155 333 q 175 226 155 279 q 234 135 196 174 q 323 71 271 95 q 436 47 375 47 m 429 -17 q 290 11 354 -17 q 180 88 226 39 q 107 201 133 137 q 81 337 81 266 l 81 340 q 108 476 81 415 q 182 582 136 538 q 288 650 228 626 q 414 675 348 675 q 556 649 498 675 q 659 587 614 623 l 455 876 l 271 781 l 230 831 l 421 925 l 358 1014 l 446 1014 l 483 957 l 619 1026 l 658 976 l 516 906 l 668 682 q 754 525 720 605 q 789 345 789 445 l 789 342 q 763 206 789 271 q 691 91 737 141 q 577 12 644 41 q 429 -17 511 -17 "},"T":{"x_min":75.078125,"x_max":824.90625,"ha":900,"o":"m 414 905 l 75 905 l 75 972 l 824 972 l 824 905 l 486 905 l 486 0 l 414 0 l 414 905 "},"š":{"x_min":68.71875,"x_max":602,"ha":690,"o":"m 182 996 l 247 996 l 349 901 l 452 996 l 514 996 l 376 826 l 320 826 l 182 996 m 358 -14 q 203 14 280 -14 q 68 88 125 43 l 109 143 q 230 74 167 98 q 362 50 294 50 q 483 86 434 50 q 533 184 533 122 l 533 187 q 517 240 533 218 q 476 279 502 262 q 416 306 449 295 q 345 329 383 317 q 259 355 302 341 q 180 390 215 369 q 124 444 146 412 q 103 523 103 476 l 103 526 q 120 604 103 569 q 167 666 137 640 q 241 707 198 692 q 335 722 284 722 q 467 701 399 722 q 587 644 534 680 l 551 587 q 446 638 502 619 q 333 658 390 658 q 215 622 259 658 q 172 534 172 587 l 172 531 q 188 480 172 502 q 232 444 205 459 q 295 417 259 428 q 368 394 331 405 q 453 367 411 381 q 528 329 495 352 q 581 274 561 306 q 602 195 602 242 l 602 192 q 583 107 602 145 q 531 42 564 69 q 453 0 498 15 q 358 -14 409 -14 "},"Þ":{"x_min":144,"x_max":859,"ha":935,"o":"m 483 252 q 607 269 551 252 q 702 317 663 286 q 764 393 742 349 q 787 491 787 437 l 787 494 q 765 596 787 552 q 704 669 743 640 q 611 713 665 698 q 491 729 557 729 l 216 729 l 216 252 l 483 252 m 144 972 l 216 972 l 216 796 l 497 796 q 643 775 577 796 q 758 717 710 755 q 832 624 806 679 q 859 498 859 569 l 859 496 q 828 361 859 419 q 745 264 797 303 q 624 205 693 225 q 479 185 555 185 l 216 185 l 216 0 l 144 0 l 144 972 "},"j":{"x_min":-1.296875,"x_max":215,"ha":346,"o":"m 55 -226 q -1 -220 26 -226 l -1 -160 q 27 -164 11 -163 q 54 -165 43 -165 q 115 -140 91 -165 q 139 -66 139 -116 l 139 708 l 207 708 l 207 -62 q 166 -185 207 -145 q 55 -226 125 -226 m 131 986 l 215 986 l 215 893 l 131 893 l 131 986 "},"1":{"x_min":42.046875,"x_max":320,"ha":465,"o":"m 249 904 l 61 840 l 42 897 l 264 979 l 320 979 l 320 0 l 249 0 l 249 904 "},"›":{"x_min":87.5,"x_max":361.140625,"ha":432,"o":"m 87 91 l 277 352 l 87 616 l 138 650 l 361 359 l 361 348 l 138 58 l 87 91 "},"ı":{"x_min":139,"x_max":207,"ha":346,"o":"m 139 708 l 207 708 l 207 0 l 139 0 l 139 708 "},"ä":{"x_min":71,"x_max":682,"ha":797,"o":"m 242 938 l 338 938 l 338 827 l 242 827 l 242 938 m 468 938 l 564 938 l 564 827 l 468 827 l 468 938 m 348 47 q 450 62 402 47 q 536 107 499 78 q 594 176 573 136 q 616 265 616 216 l 616 346 q 511 367 571 357 q 376 378 452 378 q 203 332 263 378 q 143 212 143 287 l 143 209 q 159 140 143 170 q 204 90 176 110 q 270 58 233 69 q 348 47 308 47 m 344 -17 q 245 -3 294 -17 q 158 38 197 10 q 95 108 119 66 q 71 205 71 149 l 71 208 q 93 306 71 263 q 157 379 116 350 q 254 423 197 408 q 380 439 311 439 q 509 430 455 439 q 615 408 563 422 l 615 439 q 553 601 615 547 q 381 656 491 656 q 262 640 316 656 q 159 599 208 624 l 134 658 q 252 703 192 686 q 385 720 312 720 q 609 642 531 720 q 682 442 682 569 l 682 0 l 615 0 l 615 117 q 571 68 597 92 q 512 25 545 44 q 436 -5 479 6 q 344 -17 394 -17 "},"<":{"x_min":101.390625,"x_max":745.890625,"ha":889,"o":"m 101 460 l 101 516 l 745 851 l 745 776 l 186 489 l 745 201 l 745 126 l 101 460 "},"£":{"x_min":97.546875,"x_max":807.5,"ha":895,"o":"m 97 35 l 217 63 l 217 423 l 97 423 l 97 490 l 217 490 l 217 653 q 239 797 217 733 q 307 905 262 860 q 399 965 346 944 q 515 986 451 986 q 613 974 569 986 q 691 943 656 963 q 755 896 726 923 q 807 839 783 869 l 751 795 q 707 845 731 822 q 655 884 683 868 q 592 911 626 901 q 514 921 557 921 q 357 861 417 921 q 288 655 288 791 l 288 490 l 701 490 l 701 423 l 288 423 l 288 65 l 807 65 l 807 0 l 97 0 l 97 35 "},"t":{"x_min":64.203125,"x_max":484,"ha":556,"o":"m 365 -13 q 287 -1 324 -13 q 224 33 251 9 q 182 94 197 57 q 167 181 167 131 l 167 645 l 64 645 l 64 708 l 167 708 l 167 935 l 235 935 l 235 708 l 484 708 l 484 645 l 235 645 l 235 188 q 274 81 235 112 q 376 51 314 51 q 426 56 403 51 q 481 75 450 62 l 481 12 q 426 -6 453 0 q 365 -13 399 -13 "},"ù":{"x_min":115,"x_max":722,"ha":851,"o":"m 252 962 l 337 1004 l 459 819 l 401 819 l 252 962 m 398 -17 q 278 4 331 -17 q 189 64 226 26 q 133 157 152 103 q 115 274 115 210 l 115 708 l 183 708 l 183 287 q 241 111 183 177 q 408 46 299 46 q 504 64 459 46 q 583 116 549 83 q 635 196 616 150 q 654 298 654 243 l 654 708 l 722 708 l 722 0 l 654 0 l 654 131 q 556 26 617 69 q 398 -17 495 -17 "},"W":{"x_min":69.453125,"x_max":1461.234375,"ha":1531,"o":"m 69 972 l 150 972 l 455 106 l 740 975 l 795 975 l 1080 106 l 1386 972 l 1461 972 l 1108 -7 l 1050 -7 l 765 837 l 480 -7 l 422 -7 l 69 972 "},"ï":{"x_min":11,"x_max":333,"ha":346,"o":"m 11 938 l 107 938 l 107 827 l 11 827 l 11 938 m 237 938 l 333 938 l 333 827 l 237 827 l 237 938 m 139 708 l 207 708 l 207 0 l 139 0 l 139 708 "},">":{"x_min":143.0625,"x_max":787.5625,"ha":889,"o":"m 143 201 l 702 487 l 143 776 l 143 851 l 787 516 l 787 460 l 143 126 l 143 201 "},"v":{"x_min":56.953125,"x_max":751.453125,"ha":808,"o":"m 56 708 l 136 708 l 404 75 l 675 708 l 751 708 l 433 -6 l 375 -6 l 56 708 "},"û":{"x_min":115,"x_max":722,"ha":851,"o":"m 399 996 l 455 996 l 594 826 l 528 826 l 426 920 l 323 826 l 260 826 l 399 996 m 398 -17 q 278 4 331 -17 q 189 64 226 26 q 133 157 152 103 q 115 274 115 210 l 115 708 l 183 708 l 183 287 q 241 111 183 177 q 408 46 299 46 q 504 64 459 46 q 583 116 549 83 q 635 196 616 150 q 654 298 654 243 l 654 708 l 722 708 l 722 0 l 654 0 l 654 131 q 556 26 617 69 q 398 -17 495 -17 "},"Ò":{"x_min":101,"x_max":1080.703125,"ha":1181,"o":"m 405 1205 l 490 1247 l 612 1062 l 554 1062 l 405 1205 m 591 48 q 758 82 682 48 q 888 175 833 116 q 974 313 943 234 q 1005 483 1005 392 l 1005 486 q 973 656 1005 576 q 887 795 942 736 q 756 889 832 854 q 589 924 679 924 q 422 889 498 924 q 292 796 347 855 q 206 658 237 737 q 176 488 176 579 l 176 486 q 207 315 176 395 q 293 176 238 235 q 424 82 348 117 q 591 48 501 48 m 589 -17 q 388 23 477 -17 q 234 133 298 64 q 135 292 170 202 q 101 483 101 383 l 101 486 q 136 677 101 586 q 235 837 171 768 q 390 948 299 907 q 591 989 480 989 q 792 948 701 989 q 946 838 882 907 q 1045 679 1010 769 q 1080 488 1080 588 q 1080 486 1081 487 q 1044 294 1080 385 q 945 134 1009 203 q 790 23 881 64 q 589 -17 698 -17 "},"&":{"x_min":68,"x_max":920.984375,"ha":967,"o":"m 367 49 q 519 89 449 49 q 649 201 588 130 l 362 499 q 192 395 245 458 q 140 261 140 332 l 140 258 q 156 176 140 214 q 203 109 173 137 q 276 64 234 80 q 367 49 317 49 m 395 568 q 606 772 606 634 l 606 775 q 562 884 606 840 q 451 928 518 928 q 329 882 376 928 q 283 771 283 837 l 283 768 q 288 723 283 744 q 307 680 294 702 q 342 630 320 657 q 395 568 363 602 m 695 154 q 545 29 626 73 q 366 -14 465 -14 q 247 6 302 -14 q 153 61 193 26 q 90 146 113 97 q 68 255 68 195 l 68 258 q 134 427 68 357 q 319 543 200 498 q 237 654 263 604 q 211 765 211 704 l 211 768 q 229 855 211 815 q 279 925 247 895 q 356 972 311 955 q 454 989 401 989 q 542 972 501 989 q 613 927 583 955 q 660 859 643 898 q 678 777 678 821 l 678 775 q 614 623 678 683 q 439 523 551 562 l 694 261 q 761 371 730 311 q 820 497 793 430 l 886 471 q 817 330 852 396 q 741 212 782 265 l 920 28 l 864 -19 l 695 154 "},"˝":{"x_min":141.671875,"x_max":552.828125,"ha":695,"o":"m 265 1011 l 341 970 l 201 826 l 141 826 l 265 1011 m 476 1011 l 552 970 l 412 826 l 352 826 l 476 1011 "},"Ð":{"x_min":81.828125,"x_max":1027,"ha":1128,"o":"m 509 67 q 693 99 611 67 q 832 188 775 132 q 920 320 889 244 q 952 483 952 395 l 952 486 q 920 648 952 572 q 832 781 889 724 q 693 871 775 838 q 509 905 611 905 l 258 905 l 258 522 l 580 522 l 580 455 l 258 455 l 258 67 l 509 67 m 186 455 l 81 455 l 81 522 l 186 522 l 186 972 l 509 972 q 719 935 623 972 q 883 833 814 898 q 989 679 951 767 q 1027 488 1027 591 l 1027 486 q 989 294 1027 383 q 883 140 951 205 q 719 37 814 74 q 509 0 623 0 l 186 0 l 186 455 "},"I":{"x_min":154,"x_max":226,"ha":381,"o":"m 154 972 l 226 972 l 226 0 l 154 0 l 154 972 "},"ˉ":{"x_min":138.90625,"x_max":555.59375,"ha":695,"o":"m 138 907 l 555 907 l 555 833 l 138 833 l 138 907 "},"G":{"x_min":101,"x_max":972,"ha":1089,"o":"m 589 -17 q 383 22 474 -17 q 230 130 292 62 q 134 289 167 198 q 101 483 101 380 l 101 486 q 135 675 101 584 q 232 836 169 766 q 384 947 295 905 q 581 989 473 989 q 690 980 641 989 q 782 955 739 972 q 862 915 824 939 q 937 861 901 892 l 889 807 q 760 890 833 857 q 577 924 687 924 q 414 889 488 924 q 287 794 341 854 q 205 655 234 734 q 176 488 176 576 l 176 486 q 204 311 176 391 q 287 172 233 230 q 418 80 341 113 q 593 47 495 47 q 683 56 638 47 q 767 80 727 65 q 841 115 807 95 q 903 158 876 135 l 903 437 l 577 437 l 577 504 l 972 504 l 972 128 q 807 26 905 70 q 589 -17 709 -17 "},"`":{"x_min":218.078125,"x_max":425.03125,"ha":695,"o":"m 218 969 l 302 1011 l 425 826 l 366 826 l 218 969 "},"·":{"x_min":114,"x_max":206,"ha":319,"o":"m 114 472 l 206 472 l 206 354 l 114 354 l 114 472 "},"r":{"x_min":129,"x_max":510.921875,"ha":556,"o":"m 129 708 l 197 708 l 197 507 q 249 594 217 554 q 322 663 281 635 q 410 706 362 692 q 510 720 458 721 l 510 645 l 503 645 q 387 622 442 645 q 289 553 331 599 q 222 442 247 508 q 197 290 197 376 l 197 0 l 129 0 l 129 708 "},"¿":{"x_min":72,"x_max":694.859375,"ha":742,"o":"m 374 -13 q 248 8 304 -13 q 154 66 193 30 q 93 153 115 103 q 72 258 72 202 l 72 260 q 95 374 72 324 q 158 460 119 424 q 252 516 198 495 q 367 544 305 537 l 380 718 l 424 718 l 441 492 l 435 485 q 221 423 296 483 q 146 263 146 363 l 146 260 q 161 179 146 217 q 207 112 177 141 q 280 67 237 84 q 376 51 323 51 q 525 89 460 51 q 644 194 590 127 l 694 152 q 632 85 665 114 q 560 32 599 55 q 475 -1 521 10 q 374 -13 429 -13 m 356 972 l 447 972 l 447 854 l 356 854 l 356 972 "},"ý":{"x_min":54.171875,"x_max":758.390625,"ha":817,"o":"m 512 1004 l 597 962 l 448 819 l 390 819 l 512 1004 m 215 -226 q 143 -218 175 -226 q 75 -195 111 -210 l 98 -135 q 152 -155 126 -149 q 219 -162 179 -162 q 270 -153 247 -162 q 315 -125 294 -145 q 355 -73 336 -105 q 394 4 375 -41 l 54 708 l 133 708 l 427 74 l 683 708 l 758 708 l 451 -24 q 347 -180 404 -135 q 215 -226 291 -226 "},"x":{"x_min":62.5,"x_max":729.21875,"ha":792,"o":"m 352 360 l 73 708 l 158 708 l 397 407 l 636 708 l 718 708 l 438 362 l 729 0 l 644 0 l 394 315 l 144 0 l 62 0 l 352 360 "},"è":{"x_min":81,"x_max":742,"ha":811,"o":"m 249 969 l 333 1011 l 455 826 l 397 826 l 249 969 m 668 387 q 646 490 663 441 q 597 577 629 539 q 520 639 566 616 q 413 662 475 662 q 315 641 361 662 q 235 583 269 620 q 179 496 201 546 q 153 387 157 445 l 668 387 m 428 -17 q 295 9 358 -17 q 184 84 232 35 q 108 201 136 133 q 81 352 81 269 l 81 355 q 106 499 81 431 q 177 616 132 566 q 283 695 222 666 q 417 725 344 725 q 551 696 492 725 q 653 617 611 668 q 719 500 696 567 q 742 353 742 433 q 742 339 742 344 q 741 326 742 334 l 153 326 q 182 208 157 259 q 244 120 207 156 q 330 65 282 84 q 430 47 378 47 q 571 78 514 47 q 674 158 629 110 l 721 116 q 598 20 667 58 q 428 -17 529 -17 "},"º":{"x_min":71,"x_max":471,"ha":542,"o":"m 272 625 q 372 668 334 625 q 411 772 411 711 l 411 775 q 399 833 411 805 q 370 881 388 861 q 325 913 351 901 q 269 925 300 925 q 169 881 207 925 q 131 777 131 838 l 131 775 q 142 715 131 743 q 171 668 153 688 q 216 636 190 648 q 272 625 241 625 m 71 463 l 471 463 l 471 407 l 71 407 l 71 463 m 269 571 q 189 586 226 571 q 126 630 152 602 q 85 695 100 658 q 71 772 71 731 l 71 775 q 86 853 71 816 q 127 917 101 890 q 191 962 154 945 q 272 979 227 979 q 352 963 315 979 q 415 919 389 947 q 456 854 441 891 q 471 777 471 818 l 471 775 q 455 696 471 733 q 414 632 440 659 q 350 587 387 604 q 269 571 312 571 "},"Ø":{"x_min":89.890625,"x_max":1091.109375,"ha":1181,"o":"m 592 48 q 758 82 682 48 q 889 175 834 116 q 974 313 943 234 q 1005 482 1005 392 l 1005 485 q 977 643 1005 568 q 902 777 950 718 l 320 152 q 442 75 373 103 q 592 48 511 48 m 860 819 q 738 896 807 868 q 588 924 669 924 q 422 889 498 924 q 291 796 346 855 q 206 658 237 737 q 176 489 176 579 l 176 486 q 203 328 176 403 q 278 194 230 253 l 860 819 m 588 -17 q 413 13 492 -17 q 271 97 334 44 l 173 -7 l 89 -7 l 228 139 q 133 297 166 209 q 101 483 101 385 l 101 485 q 136 677 101 586 q 235 837 171 768 q 390 948 299 907 q 592 989 480 989 q 767 958 688 989 q 909 873 846 927 l 1008 979 l 1091 979 l 952 832 q 1047 674 1014 762 q 1080 488 1080 586 q 1080 486 1081 487 q 1044 294 1080 385 q 945 134 1009 203 q 789 23 881 64 q 588 -17 698 -17 "},"μ":{"x_min":101,"x_max":1128.625,"ha":1181,"o":"m 591 48 q 758 82 682 48 q 888 175 833 116 q 974 313 943 234 q 1005 483 1005 392 l 1005 486 q 973 656 1005 576 q 887 795 942 736 q 756 889 832 854 q 589 924 679 924 q 422 889 498 924 q 292 796 347 855 q 206 658 237 737 q 176 488 176 579 l 176 486 q 207 315 176 395 q 293 176 238 235 q 424 82 348 117 q 591 48 501 48 m 825 41 q 714 -1 774 13 q 589 -17 655 -17 q 388 23 477 -17 q 234 133 298 64 q 135 292 170 202 q 101 483 101 383 l 101 486 q 136 677 101 586 q 235 837 171 768 q 390 948 299 907 q 591 989 480 989 q 792 948 701 989 q 946 838 882 907 q 1045 679 1010 769 q 1080 488 1080 588 q 1080 485 1081 487 q 1030 262 1080 367 q 892 85 981 156 l 1128 -135 l 1128 -141 l 1024 -141 l 825 41 "},"h":{"x_min":129,"x_max":736,"ha":851,"o":"m 129 1014 l 197 1014 l 197 576 q 294 681 233 638 q 452 725 355 725 q 572 703 519 725 q 661 643 624 681 q 717 550 698 604 q 736 433 736 497 l 736 0 l 668 0 l 668 420 q 609 596 668 530 q 442 662 551 662 q 345 643 390 662 q 267 591 301 624 q 215 511 234 557 q 197 409 197 464 l 197 0 l 129 0 l 129 1014 "},".":{"x_min":114,"x_max":206,"ha":319,"o":"m 114 118 l 206 118 l 206 0 l 114 0 l 114 118 "},";":{"x_min":80.71875,"x_max":213,"ha":333,"o":"m 80 -114 q 143 -65 125 -90 q 158 0 161 -40 l 121 0 l 121 118 l 213 118 l 213 15 q 186 -87 213 -50 q 97 -149 160 -125 l 80 -114 m 121 708 l 213 708 l 213 590 l 121 590 l 121 708 "},"f":{"x_min":68.21875,"x_max":487.625,"ha":503,"o":"m 171 645 l 68 645 l 68 708 l 171 708 l 171 777 q 233 962 171 899 q 382 1018 289 1018 q 439 1013 414 1018 q 487 1001 464 1009 l 487 937 q 433 950 457 946 q 382 955 409 955 q 239 776 239 955 l 239 708 l 486 708 l 486 645 l 239 645 l 239 0 l 171 0 l 171 645 "},"“":{"x_min":107,"x_max":488.28125,"ha":569,"o":"m 107 815 q 133 918 107 880 q 222 979 159 955 l 239 944 q 176 895 194 920 q 161 830 158 870 l 199 830 l 199 713 l 107 713 l 107 815 m 356 815 q 382 918 356 880 q 471 979 408 955 l 488 944 q 425 895 443 920 q 410 830 407 870 l 448 830 l 448 713 l 356 713 l 356 815 "},"A":{"x_min":61.109375,"x_max":1036.1875,"ha":1097,"o":"m 802 337 l 547 899 l 290 337 l 802 337 m 513 979 l 583 979 l 1036 0 l 957 0 l 833 272 l 259 272 l 136 0 l 61 0 l 513 979 "},"6":{"x_min":89,"x_max":800,"ha":892,"o":"m 465 48 q 571 68 523 48 q 653 122 619 88 q 706 202 687 156 q 725 299 725 248 l 725 302 q 705 394 725 352 q 650 468 686 437 q 567 517 615 499 q 460 536 519 536 q 351 515 401 536 q 265 460 301 494 q 210 383 230 426 q 190 295 190 339 l 190 292 q 210 195 190 239 q 268 118 231 150 q 356 66 305 85 q 465 48 406 48 m 459 -17 q 320 9 384 -17 q 212 80 257 35 q 159 145 182 110 q 120 224 136 180 q 96 326 104 269 q 89 459 89 384 l 89 462 q 116 668 89 572 q 195 835 144 763 q 320 948 247 907 q 484 989 394 989 q 634 959 567 989 q 765 876 701 929 l 719 821 q 605 897 662 871 q 479 924 548 924 q 345 887 405 924 q 242 783 284 850 q 179 623 201 716 q 161 419 158 530 q 209 486 181 454 q 274 544 237 519 q 358 584 311 569 q 465 600 405 600 q 592 578 531 600 q 698 518 652 556 q 772 424 744 479 q 800 305 800 370 l 800 302 q 773 174 800 233 q 701 74 747 116 q 593 7 655 31 q 459 -17 531 -17 "},"‘":{"x_min":107,"x_max":239.28125,"ha":319,"o":"m 107 815 q 133 918 107 880 q 222 979 159 955 l 239 944 q 176 895 194 920 q 161 830 158 870 l 199 830 l 199 713 l 107 713 l 107 815 "},"π":{"x_min":73,"x_max":1079,"ha":1153,"o":"m 598 478 q 704 505 665 478 q 743 586 743 533 l 743 588 q 705 668 743 642 q 602 694 667 694 l 472 694 l 472 478 l 598 478 m 411 751 l 607 751 q 751 710 697 751 q 806 591 806 669 l 806 588 q 788 514 806 545 q 742 462 771 483 q 676 431 714 441 q 597 421 639 421 l 472 421 l 472 243 l 411 243 l 411 751 m 574 22 q 757 58 673 22 q 904 158 842 95 q 1001 306 966 222 q 1037 486 1037 390 l 1037 488 q 1002 668 1037 584 q 905 815 967 752 q 759 913 843 877 q 577 950 675 950 q 394 913 478 950 q 247 813 309 876 q 150 665 185 749 q 115 486 115 581 l 115 483 q 149 303 115 387 q 246 156 184 219 q 392 58 308 94 q 574 22 476 22 m 574 -17 q 377 22 469 -17 q 218 130 285 62 q 111 289 150 198 q 73 483 73 380 l 73 486 q 111 679 73 588 q 218 839 150 770 q 379 948 286 908 q 577 989 471 989 q 774 949 682 989 q 933 841 866 909 q 1040 682 1001 773 q 1079 488 1079 591 l 1079 486 q 1040 292 1079 383 q 933 132 1001 201 q 772 23 865 63 q 574 -17 680 -17 "},"O":{"x_min":101,"x_max":1080.703125,"ha":1181,"o":"m 591 48 q 758 82 682 48 q 888 175 833 116 q 974 313 943 234 q 1005 483 1005 392 l 1005 486 q 973 656 1005 576 q 887 795 942 736 q 756 889 832 854 q 589 924 679 924 q 422 889 498 924 q 292 796 347 855 q 206 658 237 737 q 176 488 176 579 l 176 486 q 207 315 176 395 q 293 176 238 235 q 424 82 348 117 q 591 48 501 48 m 589 -17 q 388 23 477 -17 q 234 133 298 64 q 135 292 170 202 q 101 483 101 383 l 101 486 q 136 677 101 586 q 235 837 171 768 q 390 948 299 907 q 591 989 480 989 q 792 948 701 989 q 946 838 882 907 q 1045 679 1010 769 q 1080 488 1080 588 q 1080 486 1081 487 q 1044 294 1080 385 q 945 134 1009 203 q 790 23 881 64 q 589 -17 698 -17 "},"n":{"x_min":129,"x_max":736,"ha":851,"o":"m 129 708 l 197 708 l 197 576 q 294 681 233 638 q 452 725 355 725 q 572 703 519 725 q 661 643 624 681 q 717 550 698 604 q 736 433 736 497 l 736 0 l 668 0 l 668 420 q 609 596 668 530 q 442 662 551 662 q 345 643 390 662 q 267 591 301 624 q 215 511 234 557 q 197 409 197 464 l 197 0 l 129 0 l 129 708 "},"3":{"x_min":75.328125,"x_max":749,"ha":847,"o":"m 432 -17 q 223 31 312 -17 q 75 157 135 79 l 130 203 q 263 88 189 128 q 433 48 337 48 q 526 64 482 48 q 602 107 569 80 q 654 175 635 135 q 674 263 674 214 l 674 266 q 651 356 674 317 q 587 423 628 395 q 492 464 547 450 q 371 478 436 478 l 318 478 l 300 518 l 635 904 l 125 904 l 125 972 l 733 972 l 733 920 l 404 545 q 536 522 473 540 q 646 469 598 503 q 721 386 693 436 q 749 269 749 336 l 749 266 q 723 150 749 202 q 653 60 697 98 q 552 3 610 23 q 432 -17 494 -17 "},"9":{"x_min":92,"x_max":803,"ha":892,"o":"m 431 426 q 543 447 493 426 q 629 503 593 469 q 683 583 664 538 q 702 673 702 627 l 702 676 q 681 773 702 727 q 624 851 660 818 q 536 904 588 885 q 425 924 485 924 q 317 902 365 924 q 236 845 269 880 q 185 762 203 809 q 167 665 167 715 l 167 662 q 186 567 167 611 q 241 493 205 524 q 324 444 276 462 q 431 426 372 426 m 407 -17 q 245 17 315 -17 q 114 103 175 52 l 160 159 q 282 75 222 103 q 408 48 342 48 q 543 85 482 48 q 647 189 604 123 q 712 348 690 256 q 731 549 735 440 q 681 478 710 512 q 615 418 653 444 q 531 377 578 392 q 428 362 485 362 q 292 384 354 362 q 186 448 230 407 q 117 542 142 488 q 92 659 92 596 l 92 662 q 117 788 92 729 q 187 893 142 848 q 294 963 232 937 q 433 989 357 989 q 574 961 512 989 q 680 890 636 934 q 731 827 708 862 q 770 745 754 791 q 794 641 786 699 q 803 511 803 583 l 803 508 q 773 297 803 392 q 690 130 743 201 q 564 21 636 60 q 407 -17 492 -17 "},"l":{"x_min":139,"x_max":207,"ha":346,"o":"m 139 1014 l 207 1014 l 207 0 l 139 0 l 139 1014 "},"¤":{"x_min":81.953125,"x_max":920.90625,"ha":1000,"o":"m 594 -17 q 459 8 522 -17 q 346 81 397 34 q 260 194 295 128 q 206 340 225 260 l 81 340 l 81 407 l 197 407 q 193 483 193 444 l 193 486 q 195 534 193 509 q 200 578 197 558 l 81 578 l 81 645 l 212 645 q 265 783 230 719 q 350 891 301 846 q 458 963 398 937 q 584 989 518 989 q 695 974 645 989 q 784 933 744 959 q 857 871 825 906 q 918 794 890 836 l 862 756 q 805 828 834 797 q 743 881 776 859 q 670 913 709 902 q 581 925 632 925 q 482 904 529 925 q 397 845 436 883 q 329 757 358 808 q 283 645 300 705 l 677 645 l 677 578 l 270 578 q 265 535 268 558 q 263 489 263 512 l 263 486 q 268 407 263 445 l 677 407 l 677 340 l 280 340 q 327 220 297 274 q 397 128 356 166 q 489 68 438 90 q 598 47 540 47 q 752 96 688 47 q 868 224 816 145 l 920 190 q 859 109 893 147 q 786 43 826 72 q 700 -1 747 15 q 594 -17 652 -17 "},"4":{"x_min":66.5625,"x_max":845.34375,"ha":922,"o":"m 618 300 l 618 875 l 154 300 l 618 300 m 618 237 l 91 237 l 66 291 l 622 979 l 687 979 l 687 300 l 845 300 l 845 237 l 687 237 l 687 0 l 618 0 l 618 237 "},"p":{"x_min":129,"x_max":834,"ha":917,"o":"m 482 48 q 591 68 540 48 q 679 128 641 89 q 738 223 716 167 q 760 351 760 280 l 760 354 q 737 480 760 423 q 677 577 715 537 q 588 638 639 616 q 482 660 537 660 q 374 637 426 660 q 281 575 322 615 q 217 479 241 534 q 193 355 193 423 l 193 352 q 217 228 193 284 q 281 132 241 171 q 374 70 322 92 q 482 48 426 48 m 129 708 l 197 708 l 197 550 q 248 616 219 584 q 313 672 277 648 q 392 710 348 695 q 489 725 436 725 q 614 699 553 725 q 725 627 676 674 q 804 511 774 580 q 834 356 834 442 l 834 354 q 804 199 834 267 q 725 82 774 130 q 614 8 676 34 q 489 -17 553 -17 q 391 -3 436 -17 q 311 34 347 10 q 247 88 276 58 q 197 152 219 119 l 197 -222 l 129 -222 l 129 708 "},"‡":{"x_min":101,"x_max":495,"ha":597,"o":"m 273 201 l 101 192 l 101 254 l 274 245 l 267 486 l 274 727 l 101 718 l 101 780 l 273 771 l 263 972 l 333 972 l 323 771 l 495 780 l 495 718 l 322 727 l 328 486 l 322 245 l 495 254 l 495 192 l 323 201 l 332 0 l 263 0 l 273 201 "},"à":{"x_min":71,"x_max":682,"ha":797,"o":"m 218 969 l 302 1011 l 425 826 l 366 826 l 218 969 m 348 47 q 450 62 402 47 q 536 107 499 78 q 594 176 573 136 q 616 265 616 216 l 616 346 q 511 367 571 357 q 376 378 452 378 q 203 332 263 378 q 143 212 143 287 l 143 209 q 159 140 143 170 q 204 90 176 110 q 270 58 233 69 q 348 47 308 47 m 344 -17 q 245 -3 294 -17 q 158 38 197 10 q 95 108 119 66 q 71 205 71 149 l 71 208 q 93 306 71 263 q 157 379 116 350 q 254 423 197 408 q 380 439 311 439 q 509 430 455 439 q 615 408 563 422 l 615 439 q 553 601 615 547 q 381 656 491 656 q 262 640 316 656 q 159 599 208 624 l 135 658 q 252 703 193 686 q 385 720 312 720 q 609 642 531 720 q 682 442 682 569 l 682 0 l 615 0 l 615 117 q 571 68 597 92 q 512 25 545 44 q 436 -5 479 6 q 344 -17 394 -17 "},"Ü":{"x_min":129,"x_max":926,"ha":1056,"o":"m 367 1167 l 463 1167 l 463 1056 l 367 1056 l 367 1167 m 593 1167 l 689 1167 l 689 1056 l 593 1056 l 593 1167 m 527 -15 q 367 12 440 -15 q 240 92 294 39 q 158 223 187 146 q 129 404 129 301 l 129 972 l 201 972 l 201 411 q 287 143 201 237 q 530 50 374 50 q 663 72 603 50 q 765 138 723 94 q 831 249 808 183 q 854 404 854 316 l 854 972 l 926 972 l 926 412 q 896 228 926 308 q 814 94 867 148 q 689 12 762 40 q 527 -15 616 -15 "},"ó":{"x_min":81,"x_max":808,"ha":889,"o":"m 538 1011 l 623 969 l 475 826 l 416 826 l 538 1011 m 445 47 q 561 71 508 47 q 652 136 614 95 q 712 233 691 177 q 734 351 734 288 l 734 354 q 711 474 734 417 q 650 572 689 530 q 557 637 610 613 q 443 661 504 661 q 327 636 380 661 q 236 571 274 612 q 176 474 197 530 q 155 356 155 419 l 155 354 q 177 233 155 290 q 238 135 199 177 q 331 70 278 94 q 445 47 384 47 m 443 -17 q 298 12 364 -17 q 183 92 232 42 q 108 209 135 142 q 81 351 81 276 l 81 354 q 108 495 81 429 q 184 613 135 562 q 300 695 233 665 q 445 725 366 725 q 590 695 524 725 q 705 615 656 665 q 780 498 753 565 q 808 356 808 431 l 808 354 q 780 212 808 278 q 704 94 753 145 q 588 12 655 42 q 443 -17 522 -17 "},"√":{"x_min":68.21875,"x_max":1213,"ha":1352,"o":"m 1145 1014 l 1213 1014 l 1213 0 l 1145 0 l 1145 1014 m 171 645 l 68 645 l 68 708 l 171 708 l 171 777 q 233 962 171 899 q 382 1018 289 1018 q 439 1013 414 1018 q 487 1001 464 1009 l 487 937 q 433 950 457 946 q 382 955 409 955 q 239 776 239 955 l 239 708 l 486 708 l 486 645 l 239 645 l 239 0 l 171 0 l 171 645 m 674 645 l 571 645 l 571 708 l 674 708 l 674 777 q 736 962 674 899 q 885 1018 792 1018 q 942 1013 917 1018 q 990 1001 967 1009 l 990 937 q 936 950 960 946 q 885 955 912 955 q 742 776 742 955 l 742 708 l 989 708 l 989 645 l 742 645 l 742 0 l 674 0 l 674 645 "}}}
